<?xml version="1.0" encoding="UTF-8" standalone="no"?><svg xmlns="http://www.w3.org/2000/svg" xmlns:xlink="http://www.w3.org/1999/xlink" clip-rule="evenodd" stroke-miterlimit="10" viewBox="0 0 1920 1080"><desc>SVG generated by Keynote</desc><defs></defs><g transform="matrix(1.00, 0.00, -0.00, -1.00, 0.0, 1080.0)"><path d="M 0.0 1080.0 L 1920.0 1080.0 L 1920.0 0.0 L 0.0 0.0 Z M 0.0 1080.0 " fill="#FEFFFE"></path><path d="M 0.5 0.5 L 1752.5 0.5 L 1752.5 0.5 L 0.5 0.5 Z M 0.0 0.0 " fill="none" stroke="#9A9A99" stroke-width="1.00" transform="matrix(1.00, 0.00, 0.00, -1.00, 84.0, 862.0)"></path><text xml:space="preserve" font-family="HelveticaNeue-Light,Helvetica Neue" font-size="72.0" fill="#000000" transform="matrix(1.00, 0.00, -0.00, -1.00, 88.0, 907.4)">A</text><text xml:space="preserve" font-family="HelveticaNeue-Light,Helvetica Neue" font-size="72.0" fill="#000000" transform="matrix(1.00, 0.00, -0.00, -1.00, 133.4, 907.4)">b</text><text xml:space="preserve" font-family="HelveticaNeue-Light,Helvetica Neue" font-size="72.0" fill="#000000" transform="matrix(1.00, 0.00, -0.00, -1.00, 174.7, 907.4)">o</text><text xml:space="preserve" font-family="HelveticaNeue-Light,Helvetica Neue" font-size="72.0" fill="#000000" transform="matrix(1.00, 0.00, -0.00, -1.00, 214.7, 907.4)">u</text><text xml:space="preserve" font-family="HelveticaNeue-Light,Helvetica Neue" font-size="72.0" fill="#000000" transform="matrix(1.00, 0.00, -0.00, -1.00, 253.4, 907.4)">t</text><text xml:space="preserve" font-family="HelveticaNeue-Light,Helvetica Neue" font-size="72.0" fill="#000000" transform="matrix(1.00, 0.00, -0.00, -1.00, 274.7, 907.4)"> </text><text xml:space="preserve" font-family="HelveticaNeue-Light,Helvetica Neue" font-size="72.0" fill="#000000" transform="matrix(1.00, 0.00, -0.00, -1.00, 294.7, 907.4)">C</text><text xml:space="preserve" font-family="HelveticaNeue-Light,Helvetica Neue" font-size="72.0" fill="#000000" transform="matrix(1.00, 0.00, -0.00, -1.00, 345.4, 907.4)">o</text><text xml:space="preserve" font-family="HelveticaNeue-Light,Helvetica Neue" font-size="72.0" fill="#000000" transform="matrix(1.00, 0.00, -0.00, -1.00, 385.4, 907.4)">l</text><text xml:space="preserve" font-family="HelveticaNeue-Light,Helvetica Neue" font-size="72.0" fill="#000000" transform="matrix(1.00, 0.00, -0.00, -1.00, 398.8, 907.4)">i</text><text xml:space="preserve" font-family="HelveticaNeue-Light,Helvetica Neue" font-size="72.0" fill="#000000" transform="matrix(1.00, 0.00, -0.00, -1.00, 412.1, 907.4)">n</text><text xml:space="preserve" font-family="HelveticaNeue-Light,Helvetica Neue" font-size="72.0" fill="#000000" transform="matrix(1.00, 0.00, -0.00, -1.00, 450.7, 907.4)"> </text><text xml:space="preserve" font-family="HelveticaNeue-Light,Helvetica Neue" font-size="72.0" fill="#000000" transform="matrix(1.00, 0.00, -0.00, -1.00, 470.8, 907.4)">H</text><text xml:space="preserve" font-family="HelveticaNeue-Light,Helvetica Neue" font-size="72.0" fill="#000000" transform="matrix(1.00, 0.00, -0.00, -1.00, 521.4, 907.4)">i</text><text xml:space="preserve" font-family="HelveticaNeue-Light,Helvetica Neue" font-size="72.0" fill="#000000" transform="matrix(1.00, 0.00, -0.00, -1.00, 534.8, 907.4)">g</text><text xml:space="preserve" font-family="HelveticaNeue-Light,Helvetica Neue" font-size="72.0" fill="#000000" transform="matrix(1.00, 0.00, -0.00, -1.00, 574.8, 907.4)">g</text><text xml:space="preserve" font-family="HelveticaNeue-Light,Helvetica Neue" font-size="72.0" fill="#000000" transform="matrix(1.00, 0.00, -0.00, -1.00, 614.8, 907.4)">i</text><text xml:space="preserve" font-family="HelveticaNeue-Light,Helvetica Neue" font-size="72.0" fill="#000000" transform="matrix(1.00, 0.00, -0.00, -1.00, 628.1, 907.4)">n</text><text xml:space="preserve" font-family="HelveticaNeue-Light,Helvetica Neue" font-size="72.0" fill="#000000" transform="matrix(1.00, 0.00, -0.00, -1.00, 666.8, 907.4)">s</text><g><clipPath id="clip0x6100008bee40"><path d="M 1359.6 102.6 L 1739.6 102.6 L 1739.6 384.6 L 1359.6 384.6 Z M 1359.6 102.6 "></path></clipPath><g clip-path="url(#clip0x6100008bee40)"><image xlink:href="B708FEEE79A6CF4D30DBDD9CFA4C528D.png" width="380.00" height="282.00" transform="matrix(1.00, 0.00, -0.00, -1.00, 1360.0, 385.0)"></image></g></g><g><clipPath id="clip0x6100008beea0"><path d="M 1358.0 677.0 L 1741.0 677.0 L 1741.0 395.0 L 1358.0 395.0 Z M 1357.8 676.6 "></path></clipPath><g clip-path="url(#clip0x6100008beea0)"><g><clipPath id="clip0x6100008bf200"><path d="M 1357.8 394.6 L 1741.4 394.6 L 1741.4 676.6 L 1357.8 676.6 Z M 1357.8 394.6 "></path></clipPath><g clip-path="url(#clip0x6100008bf200)"><image xlink:href="8A3DD843357CDA0A915FD46B7EF90374.png" width="394.00" height="246.00" transform="matrix(1.14, 0.00, -0.00, -1.15, 1290.0, 677.0)"></image></g></g></g></g><g><clipPath id="clip0x6000008bf920"><path d="M 1568.0 520.0 L 1732.0 520.0 L 1732.0 399.0 L 1568.0 399.0 Z M 1567.7 520.3 "></path></clipPath><g clip-path="url(#clip0x6000008bf920)"><g><clipPath id="clip0x6000008bf980"><path d="M 1732.0 520.3 L 1728.8 517.9 C 1728.6 517.7 1728.4 517.6 1728.2 517.5 L 1726.6 516.0 C 1720.3 510.3 1710.5 507.2 1688.6 503.9 C 1667.1 500.8 1661.2 497.9 1656.8 488.7 C 1654.8 484.5 1653.6 475.3 1653.3 466.5 C 1653.3 466.1 1653.3 465.8 1653.3 465.3 C 1653.1 457.7 1653.7 450.9 1655.0 448.1 L 1658.1 450.9 C 1666.7 458.9 1668.9 459.6 1700.1 464.5 C 1715.6 466.9 1719.2 468.0 1724.6 472.1 C 1728.1 474.8 1730.6 477.3 1732.0 481.4 L 1732.0 520.3 Z M 1567.7 519.8 L 1568.0 503.9 C 1568.0 495.1 1568.7 485.3 1569.9 482.0 C 1570.5 480.5 1570.7 479.3 1570.8 478.2 C 1575.7 470.0 1583.1 466.9 1603.5 464.0 C 1628.9 460.4 1636.5 457.8 1643.6 450.4 L 1646.0 447.8 L 1646.0 484.3 C 1645.4 486.9 1644.6 488.9 1643.4 490.9 L 1639.8 494.5 C 1635.6 498.7 1629.7 501.5 1623.1 502.5 C 1590.0 507.7 1583.0 509.4 1575.7 514.4 L 1567.7 519.8 Z M 1568.9 471.9 C 1568.2 468.5 1567.7 462.7 1567.7 456.1 C 1567.7 426.8 1573.9 420.4 1607.1 415.9 C 1619.9 414.2 1629.9 411.4 1635.9 407.8 C 1641.0 404.7 1645.4 402.2 1645.6 402.1 C 1645.8 402.1 1645.9 419.4 1646.0 436.1 C 1645.0 440.1 1643.5 442.9 1640.8 446.0 C 1635.7 452.0 1632.2 453.4 1616.7 455.8 C 1584.4 460.8 1580.3 462.1 1571.2 469.9 L 1568.9 471.9 Z M 1731.6 471.8 L 1729.5 469.8 C 1721.2 462.3 1715.6 460.6 1683.9 455.7 C 1666.3 453.1 1660.8 449.9 1656.0 439.6 C 1655.8 439.1 1655.8 438.7 1655.6 438.1 C 1654.4 434.8 1653.4 425.4 1653.3 416.7 C 1653.3 416.2 1653.0 416.1 1653.0 415.6 L 1653.0 399.0 L 1658.4 403.8 C 1665.5 410.4 1672.2 412.7 1693.8 415.8 C 1729.8 421.0 1731.5 422.1 1731.6 471.8 Z M 1731.6 471.8 "></path></clipPath><g clip-path="url(#clip0x6000008bf980)"><g><clipPath id="clip0x6000008bfc80"><path d="M 1567.7 399.0 L 1731.7 399.0 L 1731.7 520.3 L 1567.7 520.3 Z M 1567.7 399.0 "></path></clipPath><g clip-path="url(#clip0x6000008bfc80)"><image xlink:href="E73A152C774727375E7B539F2F2A34E9.png" width="160.00" height="160.00" transform="matrix(1.16, 0.00, -0.00, -1.16, 1558.0, 552.0)"></image></g></g></g></g></g></g><g><clipPath id="clip0x6000008bfce0"><path d="M 1519.0 248.0 L 1740.0 248.0 L 1740.0 107.0 L 1519.0 107.0 Z M 1518.7 247.8 "></path></clipPath><g clip-path="url(#clip0x6000008bfce0)"><g><clipPath id="clip0x600000aa0000"><path d="M 1615.6 247.8 C 1603.7 247.6 1595.4 247.4 1594.9 247.1 C 1593.9 246.6 1589.8 245.6 1585.8 244.9 C 1559.9 240.3 1537.4 225.2 1526.1 204.7 C 1524.1 201.1 1521.8 196.0 1521.1 193.4 C 1520.4 190.8 1519.4 188.3 1518.9 187.7 C 1518.8 187.6 1518.8 184.3 1518.7 183.0 C 1518.9 181.3 1519.2 180.3 1519.6 180.1 C 1520.5 179.8 1521.9 180.1 1522.7 180.8 C 1524.7 182.4 1525.8 180.4 1524.4 177.7 C 1522.8 174.9 1521.6 158.7 1523.0 158.7 C 1523.5 158.7 1525.3 160.2 1527.0 161.9 C 1528.6 163.6 1530.2 164.8 1530.6 164.4 C 1530.9 164.1 1531.0 159.4 1530.8 153.9 C 1530.5 145.8 1530.7 144.0 1532.0 144.0 C 1532.8 144.0 1534.1 144.8 1534.9 145.7 C 1537.1 148.4 1538.0 146.0 1538.7 134.2 C 1539.0 128.0 1539.7 122.7 1540.2 122.4 C 1540.6 122.2 1547.2 129.4 1554.9 138.5 C 1576.8 164.6 1601.0 188.6 1603.1 186.4 C 1603.8 185.8 1603.0 184.3 1601.0 182.4 C 1599.2 180.7 1597.8 178.8 1597.8 178.1 C 1597.8 177.4 1600.0 176.5 1602.8 176.1 C 1612.0 174.8 1619.0 167.9 1616.0 163.1 C 1615.4 162.1 1612.5 160.0 1609.4 158.2 C 1593.1 148.9 1585.4 140.3 1584.4 130.4 C 1583.5 120.8 1588.0 113.2 1597.3 108.5 C 1599.0 107.7 1601.4 107.2 1607.7 106.9 C 1608.7 107.0 1611.9 107.0 1612.0 107.1 C 1612.6 107.6 1615.2 108.6 1617.8 109.3 C 1626.1 111.7 1635.5 116.9 1642.1 122.9 C 1654.3 134.0 1659.8 145.9 1659.7 161.6 C 1659.7 173.1 1659.2 174.0 1653.8 172.5 C 1647.7 170.8 1638.8 171.2 1634.0 173.3 C 1628.8 175.7 1621.6 183.4 1619.7 188.6 C 1618.4 192.4 1618.1 192.6 1614.4 192.1 C 1612.2 191.8 1610.2 191.9 1609.9 192.4 C 1609.2 193.5 1623.8 204.2 1625.0 203.5 C 1625.5 203.2 1626.1 200.3 1626.5 197.2 C 1627.2 190.3 1630.5 183.9 1634.6 181.5 C 1641.4 177.4 1651.3 178.3 1658.4 183.6 C 1662.9 187.0 1665.1 191.5 1665.3 197.7 C 1665.4 200.5 1665.8 203.0 1666.2 203.3 C 1666.5 203.7 1669.5 200.9 1672.8 197.1 C 1679.6 189.3 1685.0 186.1 1690.9 186.1 C 1699.4 186.2 1703.8 191.5 1703.8 201.8 C 1703.8 210.6 1701.2 215.8 1693.4 223.1 C 1682.5 233.2 1661.8 242.1 1642.9 244.9 C 1638.0 245.6 1633.2 246.6 1632.2 247.1 C 1631.7 247.4 1625.1 247.6 1615.6 247.8 Z M 1714.8 195.5 C 1712.0 195.5 1669.4 156.1 1668.5 152.7 C 1667.5 148.9 1668.7 148.7 1675.2 151.5 C 1680.3 153.6 1682.9 154.0 1691.2 153.9 C 1703.1 153.8 1707.0 152.4 1714.4 145.4 C 1719.8 140.3 1721.6 136.2 1721.6 128.7 C 1721.6 126.4 1722.0 124.1 1722.4 123.7 C 1724.9 121.2 1731.2 126.9 1735.7 135.7 C 1739.3 142.7 1739.5 143.7 1739.5 153.4 C 1739.5 159.0 1739.1 164.0 1738.6 164.6 C 1738.1 165.1 1737.1 167.5 1736.3 169.8 C 1735.6 172.1 1733.8 175.9 1732.3 178.2 C 1729.4 182.9 1716.6 195.5 1714.8 195.5 Z M 1669.8 140.9 C 1664.8 140.9 1664.9 138.7 1670.2 131.2 C 1674.1 125.7 1676.9 123.3 1682.8 120.2 C 1686.5 118.3 1696.0 118.5 1700.3 120.5 C 1705.2 122.9 1704.6 125.5 1698.9 126.2 C 1693.7 126.9 1690.7 129.3 1689.1 134.1 C 1688.0 137.3 1687.4 137.7 1680.7 139.2 C 1676.7 140.1 1671.8 140.9 1669.8 140.9 Z M 1669.8 140.9 "></path></clipPath><g clip-path="url(#clip0x600000aa0000)"><g><clipPath id="clip0x600000aa0180"><path d="M 1518.7 106.9 L 1739.5 106.9 L 1739.5 247.8 L 1518.7 247.8 Z M 1518.7 106.9 "></path></clipPath><g clip-path="url(#clip0x600000aa0180)"><image xlink:href="C039FC62607E21FDED443B6E1283E514.png" width="281.00" height="180.00" transform="matrix(0.79, 0.00, -0.00, -0.79, 1518.0, 248.0)"></image></g></g></g></g></g></g><text xml:space="preserve" font-family="HelveticaNeue-Light,Helvetica Neue" font-size="50.0" fill="#000000" transform="matrix(1.00, 0.00, -0.00, -1.00, 791.5, 309.6)">P</text><text xml:space="preserve" font-family="HelveticaNeue-Light,Helvetica Neue" font-size="50.0" fill="#000000" transform="matrix(1.00, 0.00, -0.00, -1.00, 823.0, 309.6)">h</text><text xml:space="preserve" font-family="HelveticaNeue-Light,Helvetica Neue" font-size="50.0" fill="#000000" transform="matrix(1.00, 0.00, -0.00, -1.00, 849.8, 309.6)">D</text><text xml:space="preserve" font-family="HelveticaNeue-Light,Helvetica Neue" font-size="50.0" fill="#000000" transform="matrix(1.00, 0.00, -0.00, -1.00, 884.1, 309.6)"> </text><text xml:space="preserve" font-family="HelveticaNeue-Light,Helvetica Neue" font-size="50.0" fill="#000000" transform="matrix(1.00, 0.00, -0.00, -1.00, 898.0, 309.6)">i</text><text xml:space="preserve" font-family="HelveticaNeue-Light,Helvetica Neue" font-size="50.0" fill="#000000" transform="matrix(1.00, 0.00, -0.00, -1.00, 907.2, 309.6)">n</text><text xml:space="preserve" font-family="HelveticaNeue-Light,Helvetica Neue" font-size="50.0" fill="#000000" transform="matrix(1.00, 0.00, -0.00, -1.00, 934.1, 309.6)"> </text><text xml:space="preserve" font-family="HelveticaNeue-Light,Helvetica Neue" font-size="50.0" fill="#000000" transform="matrix(1.00, 0.00, -0.00, -1.00, 948.0, 309.6)">b</text><text xml:space="preserve" font-family="HelveticaNeue-Light,Helvetica Neue" font-size="50.0" fill="#000000" transform="matrix(1.00, 0.00, -0.00, -1.00, 976.7, 309.6)">i</text><text xml:space="preserve" font-family="HelveticaNeue-Light,Helvetica Neue" font-size="50.0" fill="#000000" transform="matrix(1.00, 0.00, -0.00, -1.00, 985.9, 309.6)">o</text><text xml:space="preserve" font-family="HelveticaNeue-Light,Helvetica Neue" font-size="50.0" fill="#000000" transform="matrix(1.00, 0.00, -0.00, -1.00, 1013.7, 309.6)">p</text><text xml:space="preserve" font-family="HelveticaNeue-Light,Helvetica Neue" font-size="50.0" fill="#000000" transform="matrix(1.00, 0.00, -0.00, -1.00, 1042.4, 309.6)">h</text><text xml:space="preserve" font-family="HelveticaNeue-Light,Helvetica Neue" font-size="50.0" fill="#000000" transform="matrix(1.00, 0.00, -0.00, -1.00, 1069.3, 309.6)">y</text><text xml:space="preserve" font-family="HelveticaNeue-Light,Helvetica Neue" font-size="50.0" fill="#000000" transform="matrix(1.00, 0.00, -0.00, -1.00, 1092.4, 309.6)">s</text><text xml:space="preserve" font-family="HelveticaNeue-Light,Helvetica Neue" font-size="50.0" fill="#000000" transform="matrix(1.00, 0.00, -0.00, -1.00, 1116.5, 309.6)">i</text><text xml:space="preserve" font-family="HelveticaNeue-Light,Helvetica Neue" font-size="50.0" fill="#000000" transform="matrix(1.00, 0.00, -0.00, -1.00, 1125.7, 309.6)">c</text><text xml:space="preserve" font-family="HelveticaNeue-Light,Helvetica Neue" font-size="50.0" fill="#000000" transform="matrix(1.00, 0.00, -0.00, -1.00, 1151.7, 309.6)">a</text><text xml:space="preserve" font-family="HelveticaNeue-Light,Helvetica Neue" font-size="50.0" fill="#000000" transform="matrix(1.00, 0.00, -0.00, -1.00, 1177.6, 309.6)">l</text><text xml:space="preserve" font-family="HelveticaNeue-Light,Helvetica Neue" font-size="50.0" fill="#000000" transform="matrix(1.00, 0.00, -0.00, -1.00, 1186.9, 309.6)"> </text><text xml:space="preserve" font-family="HelveticaNeue-Light,Helvetica Neue" font-size="50.0" fill="#000000" transform="matrix(1.00, 0.00, -0.00, -1.00, 1200.8, 309.6)"> </text><text xml:space="preserve" font-family="HelveticaNeue-Light,Helvetica Neue" font-size="50.0" fill="#000000" transform="matrix(1.00, 0.00, -0.00, -1.00, 777.1, 249.6)">m</text><text xml:space="preserve" font-family="HelveticaNeue-Light,Helvetica Neue" font-size="50.0" fill="#000000" transform="matrix(1.00, 0.00, -0.00, -1.00, 818.8, 249.6)">e</text><text xml:space="preserve" font-family="HelveticaNeue-Light,Helvetica Neue" font-size="50.0" fill="#000000" transform="matrix(1.00, 0.00, -0.00, -1.00, 844.7, 249.6)">d</text><text xml:space="preserve" font-family="HelveticaNeue-Light,Helvetica Neue" font-size="50.0" fill="#000000" transform="matrix(1.00, 0.00, -0.00, -1.00, 873.4, 249.6)">i</text><text xml:space="preserve" font-family="HelveticaNeue-Light,Helvetica Neue" font-size="50.0" fill="#000000" transform="matrix(1.00, 0.00, -0.00, -1.00, 882.7, 249.6)">c</text><text xml:space="preserve" font-family="HelveticaNeue-Light,Helvetica Neue" font-size="50.0" fill="#000000" transform="matrix(1.00, 0.00, -0.00, -1.00, 908.6, 249.6)">i</text><text xml:space="preserve" font-family="HelveticaNeue-Light,Helvetica Neue" font-size="50.0" fill="#000000" transform="matrix(1.00, 0.00, -0.00, -1.00, 917.9, 249.6)">n</text><text xml:space="preserve" font-family="HelveticaNeue-Light,Helvetica Neue" font-size="50.0" fill="#000000" transform="matrix(1.00, 0.00, -0.00, -1.00, 944.7, 249.6)">a</text><text xml:space="preserve" font-family="HelveticaNeue-Light,Helvetica Neue" font-size="50.0" fill="#000000" transform="matrix(1.00, 0.00, -0.00, -1.00, 970.7, 249.6)">l</text><text xml:space="preserve" font-family="HelveticaNeue-Light,Helvetica Neue" font-size="50.0" fill="#000000" transform="matrix(1.00, 0.00, -0.00, -1.00, 979.9, 249.6)"> </text><text xml:space="preserve" font-family="HelveticaNeue-Light,Helvetica Neue" font-size="50.0" fill="#000000" transform="matrix(1.00, 0.00, -0.00, -1.00, 993.8, 249.6)">c</text><text xml:space="preserve" font-family="HelveticaNeue-Light,Helvetica Neue" font-size="50.0" fill="#000000" transform="matrix(1.00, 0.00, -0.00, -1.00, 1019.8, 249.6)">h</text><text xml:space="preserve" font-family="HelveticaNeue-Light,Helvetica Neue" font-size="50.0" fill="#000000" transform="matrix(1.00, 0.00, -0.00, -1.00, 1046.6, 249.6)">e</text><text xml:space="preserve" font-family="HelveticaNeue-Light,Helvetica Neue" font-size="50.0" fill="#000000" transform="matrix(1.00, 0.00, -0.00, -1.00, 1072.6, 249.6)">m</text><text xml:space="preserve" font-family="HelveticaNeue-Light,Helvetica Neue" font-size="50.0" fill="#000000" transform="matrix(1.00, 0.00, -0.00, -1.00, 1114.2, 249.6)">i</text><text xml:space="preserve" font-family="HelveticaNeue-Light,Helvetica Neue" font-size="50.0" fill="#000000" transform="matrix(1.00, 0.00, -0.00, -1.00, 1123.5, 249.6)">s</text><text xml:space="preserve" font-family="HelveticaNeue-Light,Helvetica Neue" font-size="50.0" fill="#000000" transform="matrix(1.00, 0.00, -0.00, -1.00, 1147.5, 249.6)">t</text><text xml:space="preserve" font-family="HelveticaNeue-Light,Helvetica Neue" font-size="50.0" fill="#000000" transform="matrix(1.00, 0.00, -0.00, -1.00, 1162.3, 249.6)">r</text><text xml:space="preserve" font-family="HelveticaNeue-Light,Helvetica Neue" font-size="50.0" fill="#000000" transform="matrix(1.00, 0.00, -0.00, -1.00, 1178.1, 249.6)">y</text><text xml:space="preserve" font-family="HelveticaNeue-Light,Helvetica Neue" font-size="50.0" fill="#000000" transform="matrix(1.00, 0.00, -0.00, -1.00, 1201.2, 249.6)"> </text><text xml:space="preserve" font-family="HelveticaNeue-Light,Helvetica Neue" font-size="50.0" fill="#000000" transform="matrix(1.00, 0.00, -0.00, -1.00, 745.1, 189.6)">f</text><text xml:space="preserve" font-family="HelveticaNeue-Light,Helvetica Neue" font-size="50.0" fill="#000000" transform="matrix(1.00, 0.00, -0.00, -1.00, 758.1, 189.6)">r</text><text xml:space="preserve" font-family="HelveticaNeue-Light,Helvetica Neue" font-size="50.0" fill="#000000" transform="matrix(1.00, 0.00, -0.00, -1.00, 772.9, 189.6)">o</text><text xml:space="preserve" font-family="HelveticaNeue-Light,Helvetica Neue" font-size="50.0" fill="#000000" transform="matrix(1.00, 0.00, -0.00, -1.00, 800.7, 189.6)">m</text><text xml:space="preserve" font-family="HelveticaNeue-Light,Helvetica Neue" font-size="50.0" fill="#000000" transform="matrix(1.00, 0.00, -0.00, -1.00, 842.4, 189.6)"> </text><text xml:space="preserve" font-family="HelveticaNeue-Light,Helvetica Neue" font-size="50.0" fill="#000000" transform="matrix(1.00, 0.00, -0.00, -1.00, 856.3, 189.6)">U</text><text xml:space="preserve" font-family="HelveticaNeue-Light,Helvetica Neue" font-size="50.0" fill="#000000" transform="matrix(1.00, 0.00, -0.00, -1.00, 890.5, 189.6)">n</text><text xml:space="preserve" font-family="HelveticaNeue-Light,Helvetica Neue" font-size="50.0" fill="#000000" transform="matrix(1.00, 0.00, -0.00, -1.00, 917.4, 189.6)">i</text><text xml:space="preserve" font-family="HelveticaNeue-Light,Helvetica Neue" font-size="50.0" fill="#000000" transform="matrix(1.00, 0.00, -0.00, -1.00, 926.6, 189.6)">v</text><text xml:space="preserve" font-family="HelveticaNeue-Light,Helvetica Neue" font-size="50.0" fill="#000000" transform="matrix(1.00, 0.00, -0.00, -1.00, 949.8, 189.6)">e</text><text xml:space="preserve" font-family="HelveticaNeue-Light,Helvetica Neue" font-size="50.0" fill="#000000" transform="matrix(1.00, 0.00, -0.00, -1.00, 975.7, 189.6)">r</text><text xml:space="preserve" font-family="HelveticaNeue-Light,Helvetica Neue" font-size="50.0" fill="#000000" transform="matrix(1.00, 0.00, -0.00, -1.00, 991.5, 189.6)">s</text><text xml:space="preserve" font-family="HelveticaNeue-Light,Helvetica Neue" font-size="50.0" fill="#000000" transform="matrix(1.00, 0.00, -0.00, -1.00, 1015.5, 189.6)">i</text><text xml:space="preserve" font-family="HelveticaNeue-Light,Helvetica Neue" font-size="50.0" fill="#000000" transform="matrix(1.00, 0.00, -0.00, -1.00, 1024.8, 189.6)">t</text><text xml:space="preserve" font-family="HelveticaNeue-Light,Helvetica Neue" font-size="50.0" fill="#000000" transform="matrix(1.00, 0.00, -0.00, -1.00, 1039.6, 189.6)">y</text><text xml:space="preserve" font-family="HelveticaNeue-Light,Helvetica Neue" font-size="50.0" fill="#000000" transform="matrix(1.00, 0.00, -0.00, -1.00, 1062.7, 189.6)"> </text><text xml:space="preserve" font-family="HelveticaNeue-Light,Helvetica Neue" font-size="50.0" fill="#000000" transform="matrix(1.00, 0.00, -0.00, -1.00, 1076.6, 189.6)">o</text><text xml:space="preserve" font-family="HelveticaNeue-Light,Helvetica Neue" font-size="50.0" fill="#000000" transform="matrix(1.00, 0.00, -0.00, -1.00, 1104.4, 189.6)">f</text><text xml:space="preserve" font-family="HelveticaNeue-Light,Helvetica Neue" font-size="50.0" fill="#000000" transform="matrix(1.00, 0.00, -0.00, -1.00, 1117.4, 189.6)"> </text><text xml:space="preserve" font-family="HelveticaNeue-Light,Helvetica Neue" font-size="50.0" fill="#000000" transform="matrix(1.00, 0.00, -0.00, -1.00, 1131.3, 189.6)">I</text><text xml:space="preserve" font-family="HelveticaNeue-Light,Helvetica Neue" font-size="50.0" fill="#000000" transform="matrix(1.00, 0.00, -0.00, -1.00, 1142.4, 189.6)">o</text><text xml:space="preserve" font-family="HelveticaNeue-Light,Helvetica Neue" font-size="50.0" fill="#000000" transform="matrix(1.00, 0.00, -0.00, -1.00, 1170.2, 189.6)">w</text><text xml:space="preserve" font-family="HelveticaNeue-Light,Helvetica Neue" font-size="50.0" fill="#000000" transform="matrix(1.00, 0.00, -0.00, -1.00, 1207.2, 189.6)">a</text><g><clipPath id="clip0x6080008a4260"><path d="M 625.0 700.0 L 1354.0 700.0 L 1354.0 435.0 L 625.0 435.0 Z M 624.8 700.4 "></path></clipPath><g clip-path="url(#clip0x6080008a4260)"><image xlink:href="DA1B4DC081A4CF9C464C07F454C64AD5.png" width="1319.00" height="481.00" transform="matrix(0.55, 0.00, -0.00, -0.55, 625.0, 700.0)"></image></g></g><g><clipPath id="clip0x6100008bf260"><path d="M 203.5 102.6 L 644.5 102.6 L 644.5 464.6 L 203.5 464.6 Z M 203.5 102.6 "></path></clipPath><g clip-path="url(#clip0x6100008bf260)"><image xlink:href="8875F19A31E04DC952E8C1C831BDE528.png" width="441.00" height="362.00" transform="matrix(1.00, 0.00, -0.00, -1.00, 203.0, 465.0)"></image></g></g><g><clipPath id="clip0x6180008bc440"><path d="M 203.5 474.0 L 532.8 474.0 L 532.8 836.0 L 203.5 836.0 Z M 203.5 474.0 "></path></clipPath><g clip-path="url(#clip0x6180008bc440)"><image xlink:href="9B13A5AED9F277CEE68DF78C59ED9419.png" width="292.00" height="321.00" transform="matrix(1.13, 0.00, -0.00, -1.13, 203.0, 836.0)"></image></g></g><text xml:space="preserve" font-family="HelveticaNeue-Light,Helvetica Neue" font-size="100.0" fill="#000000" transform="matrix(0.00, 1.00, 1.00, -0.00, 170.5, 401.2)">P</text><text xml:space="preserve" font-family="HelveticaNeue-Light,Helvetica Neue" font-size="100.0" fill="#000000" transform="matrix(0.00, 1.00, 1.00, -0.00, 170.5, 464.2)">l</text><text xml:space="preserve" font-family="HelveticaNeue-Light,Helvetica Neue" font-size="100.0" fill="#000000" transform="matrix(0.00, 1.00, 1.00, -0.00, 170.5, 482.7)">a</text><text xml:space="preserve" font-family="HelveticaNeue-Light,Helvetica Neue" font-size="100.0" fill="#000000" transform="matrix(0.00, 1.00, 1.00, -0.00, 170.5, 534.6)">y</text><text xml:space="preserve" font-family="HelveticaNeue-Light,Helvetica Neue" font-size="100.0" fill="#000000" transform="matrix(0.00, -1.00, -1.00, -0.00, 1770.9, 582.3)">W</text><text xml:space="preserve" font-family="HelveticaNeue-Light,Helvetica Neue" font-size="100.0" fill="#000000" transform="matrix(0.00, -1.00, -1.00, -0.00, 1770.9, 493.4)">o</text><text xml:space="preserve" font-family="HelveticaNeue-Light,Helvetica Neue" font-size="100.0" fill="#000000" transform="matrix(0.00, -1.00, -1.00, -0.00, 1770.9, 437.8)">r</text><text xml:space="preserve" font-family="HelveticaNeue-Light,Helvetica Neue" font-size="100.0" fill="#000000" transform="matrix(0.00, -1.00, -1.00, -0.00, 1770.9, 406.3)">k</text></g></svg>