<?xml version="1.0" encoding="UTF-8" standalone="no"?><svg xmlns="http://www.w3.org/2000/svg" xmlns:xlink="http://www.w3.org/1999/xlink" clip-rule="evenodd" stroke-miterlimit="10" viewBox="0 0 1920 1080"><desc>SVG generated by Keynote</desc><defs></defs><g transform="matrix(1.00, 0.00, -0.00, -1.00, 0.0, 1080.0)"><path d="M 0.0 1080.0 L 1920.0 1080.0 L 1920.0 0.0 L 0.0 0.0 Z M 0.0 1080.0 " fill="#FEFFFE"></path><text xml:space="preserve" font-family="HelveticaNeue-Light,Helvetica Neue" font-size="72.0" fill="#000000" transform="matrix(1.00, 0.00, -0.00, -1.00, 88.0, 907.4)">A</text><text xml:space="preserve" font-family="HelveticaNeue-Light,Helvetica Neue" font-size="72.0" fill="#000000" transform="matrix(1.00, 0.00, -0.00, -1.00, 133.4, 907.4)">n</text><text xml:space="preserve" font-family="HelveticaNeue-Light,Helvetica Neue" font-size="72.0" fill="#000000" transform="matrix(1.00, 0.00, -0.00, -1.00, 172.0, 907.4)"> </text><text xml:space="preserve" font-family="HelveticaNeue-Light,Helvetica Neue" font-size="72.0" fill="#000000" transform="matrix(1.00, 0.00, -0.00, -1.00, 192.0, 907.4)">E</text><text xml:space="preserve" font-family="HelveticaNeue-Light,Helvetica Neue" font-size="72.0" fill="#000000" transform="matrix(1.00, 0.00, -0.00, -1.00, 234.7, 907.4)">x</text><text xml:space="preserve" font-family="HelveticaNeue-Light,Helvetica Neue" font-size="72.0" fill="#000000" transform="matrix(1.00, 0.00, -0.00, -1.00, 269.4, 907.4)">a</text><text xml:space="preserve" font-family="HelveticaNeue-Light,Helvetica Neue" font-size="72.0" fill="#000000" transform="matrix(1.00, 0.00, -0.00, -1.00, 306.7, 907.4)">m</text><text xml:space="preserve" font-family="HelveticaNeue-Light,Helvetica Neue" font-size="72.0" fill="#000000" transform="matrix(1.00, 0.00, -0.00, -1.00, 366.7, 907.4)">p</text><text xml:space="preserve" font-family="HelveticaNeue-Light,Helvetica Neue" font-size="72.0" fill="#000000" transform="matrix(1.00, 0.00, -0.00, -1.00, 408.0, 907.4)">l</text><text xml:space="preserve" font-family="HelveticaNeue-Light,Helvetica Neue" font-size="72.0" fill="#000000" transform="matrix(1.00, 0.00, -0.00, -1.00, 421.4, 907.4)">e</text><image xlink:href="../../48780AA6-E3D8-4FE5-A815-D336DC6E1FAB/assets/56B8DC0AC34D06D9925B1931125D49D2.png" width="1200.00" height="1068.00" transform="matrix(0.45, 0.00, -0.00, -0.45, 34.0, 878.0)"></image><g><clipPath id="clip0x6180008a0fc0"><path d="M 624.0 1018.0 L 1296.0 1018.0 L 1296.0 186.0 L 624.0 186.0 Z M 623.9 1018.2 "></path></clipPath><g clip-path="url(#clip0x6180008a0fc0)"><image xlink:href="../../48780AA6-E3D8-4FE5-A815-D336DC6E1FAB/assets/DE934781AA30BA388A052DB0F19DF6F2.png" width="1230.00" height="1206.00" transform="matrix(0.75, 0.00, -0.00, -0.75, 373.0, 1091.0)"></image></g></g><text xml:space="preserve" font-family="HelveticaNeue-Light,Helvetica Neue" font-size="40.0" fill="#458DE4" transform="matrix(1.00, 0.00, -0.00, -1.00, 1081.3, 218.8)">d</text><text xml:space="preserve" font-family="HelveticaNeue-Light,Helvetica Neue" font-size="40.0" fill="#458DE4" transform="matrix(1.00, 0.00, -0.00, -1.00, 1104.2, 218.8)">e</text><text xml:space="preserve" font-family="HelveticaNeue-Light,Helvetica Neue" font-size="40.0" fill="#458DE4" transform="matrix(1.00, 0.00, -0.00, -1.00, 1125.0, 218.8)">s</text><text xml:space="preserve" font-family="HelveticaNeue-Light,Helvetica Neue" font-size="40.0" fill="#458DE4" transform="matrix(1.00, 0.00, -0.00, -1.00, 1144.2, 218.8)">i</text><text xml:space="preserve" font-family="HelveticaNeue-Light,Helvetica Neue" font-size="40.0" fill="#458DE4" transform="matrix(1.00, 0.00, -0.00, -1.00, 1151.6, 218.8)">g</text><text xml:space="preserve" font-family="HelveticaNeue-Light,Helvetica Neue" font-size="40.0" fill="#458DE4" transform="matrix(1.00, 0.00, -0.00, -1.00, 1173.9, 218.8)">n</text><text xml:space="preserve" font-family="HelveticaNeue-Light,Helvetica Neue" font-size="40.0" fill="#458DE4" transform="matrix(1.00, 0.00, -0.00, -1.00, 1195.4, 218.8)">e</text><text xml:space="preserve" font-family="HelveticaNeue-Light,Helvetica Neue" font-size="40.0" fill="#458DE4" transform="matrix(1.00, 0.00, -0.00, -1.00, 1216.1, 218.8)">r</text><text xml:space="preserve" font-family="HelveticaNeue-Light,Helvetica Neue" font-size="40.0" fill="#458DE4" transform="matrix(1.00, 0.00, -0.00, -1.00, 1228.7, 218.8)">s</text><text xml:space="preserve" font-family="HelveticaNeue-Light,Helvetica Neue" font-size="40.0" fill="#458DE4" transform="matrix(1.00, 0.00, -0.00, -1.00, 1248.0, 218.8)"> </text><text xml:space="preserve" font-family="HelveticaNeue-Light,Helvetica Neue" font-size="40.0" fill="#458DE4" transform="matrix(1.00, 0.00, -0.00, -1.00, 1089.1, 169.8)">f</text><text xml:space="preserve" font-family="HelveticaNeue-Light,Helvetica Neue" font-size="40.0" fill="#458DE4" transform="matrix(1.00, 0.00, -0.00, -1.00, 1099.4, 169.8)">o</text><text xml:space="preserve" font-family="HelveticaNeue-Light,Helvetica Neue" font-size="40.0" fill="#458DE4" transform="matrix(1.00, 0.00, -0.00, -1.00, 1121.7, 169.8)">u</text><text xml:space="preserve" font-family="HelveticaNeue-Light,Helvetica Neue" font-size="40.0" fill="#458DE4" transform="matrix(1.00, 0.00, -0.00, -1.00, 1143.1, 169.8)">n</text><text xml:space="preserve" font-family="HelveticaNeue-Light,Helvetica Neue" font-size="40.0" fill="#458DE4" transform="matrix(1.00, 0.00, -0.00, -1.00, 1164.6, 169.8)">d</text><text xml:space="preserve" font-family="HelveticaNeue-Light,Helvetica Neue" font-size="40.0" fill="#458DE4" transform="matrix(1.00, 0.00, -0.00, -1.00, 1187.6, 169.8)">e</text><text xml:space="preserve" font-family="HelveticaNeue-Light,Helvetica Neue" font-size="40.0" fill="#458DE4" transform="matrix(1.00, 0.00, -0.00, -1.00, 1208.3, 169.8)">r</text><text xml:space="preserve" font-family="HelveticaNeue-Light,Helvetica Neue" font-size="40.0" fill="#458DE4" transform="matrix(1.00, 0.00, -0.00, -1.00, 1221.0, 169.8)">s</text><text xml:space="preserve" font-family="HelveticaNeue-Light,Helvetica Neue" font-size="40.0" fill="#458DE4" transform="matrix(1.00, 0.00, -0.00, -1.00, 1240.2, 169.8)"> </text><text xml:space="preserve" font-family="HelveticaNeue-Light,Helvetica Neue" font-size="40.0" fill="#458DE4" transform="matrix(1.00, 0.00, -0.00, -1.00, 939.4, 120.8)">u</text><text xml:space="preserve" font-family="HelveticaNeue-Light,Helvetica Neue" font-size="40.0" fill="#458DE4" transform="matrix(1.00, 0.00, -0.00, -1.00, 960.9, 120.8)">s</text><text xml:space="preserve" font-family="HelveticaNeue-Light,Helvetica Neue" font-size="40.0" fill="#458DE4" transform="matrix(1.00, 0.00, -0.00, -1.00, 980.1, 120.8)">e</text><text xml:space="preserve" font-family="HelveticaNeue-Light,Helvetica Neue" font-size="40.0" fill="#458DE4" transform="matrix(1.00, 0.00, -0.00, -1.00, 1000.9, 120.8)">r</text><text xml:space="preserve" font-family="HelveticaNeue-Light,Helvetica Neue" font-size="40.0" fill="#458DE4" transform="matrix(1.00, 0.00, -0.00, -1.00, 1013.5, 120.8)"> </text><text xml:space="preserve" font-family="HelveticaNeue-Light,Helvetica Neue" font-size="40.0" fill="#458DE4" transform="matrix(1.00, 0.00, -0.00, -1.00, 1024.6, 120.8)">e</text><text xml:space="preserve" font-family="HelveticaNeue-Light,Helvetica Neue" font-size="40.0" fill="#458DE4" transform="matrix(1.00, 0.00, -0.00, -1.00, 1045.4, 120.8)">x</text><text xml:space="preserve" font-family="HelveticaNeue-Light,Helvetica Neue" font-size="40.0" fill="#458DE4" transform="matrix(1.00, 0.00, -0.00, -1.00, 1064.6, 120.8)">p</text><text xml:space="preserve" font-family="HelveticaNeue-Light,Helvetica Neue" font-size="40.0" fill="#458DE4" transform="matrix(1.00, 0.00, -0.00, -1.00, 1087.6, 120.8)">e</text><text xml:space="preserve" font-family="HelveticaNeue-Light,Helvetica Neue" font-size="40.0" fill="#458DE4" transform="matrix(1.00, 0.00, -0.00, -1.00, 1108.3, 120.8)">r</text><text xml:space="preserve" font-family="HelveticaNeue-Light,Helvetica Neue" font-size="40.0" fill="#458DE4" transform="matrix(1.00, 0.00, -0.00, -1.00, 1120.9, 120.8)">i</text><text xml:space="preserve" font-family="HelveticaNeue-Light,Helvetica Neue" font-size="40.0" fill="#458DE4" transform="matrix(1.00, 0.00, -0.00, -1.00, 1128.3, 120.8)">e</text><text xml:space="preserve" font-family="HelveticaNeue-Light,Helvetica Neue" font-size="40.0" fill="#458DE4" transform="matrix(1.00, 0.00, -0.00, -1.00, 1149.1, 120.8)">n</text><text xml:space="preserve" font-family="HelveticaNeue-Light,Helvetica Neue" font-size="40.0" fill="#458DE4" transform="matrix(1.00, 0.00, -0.00, -1.00, 1170.6, 120.8)">c</text><text xml:space="preserve" font-family="HelveticaNeue-Light,Helvetica Neue" font-size="40.0" fill="#458DE4" transform="matrix(1.00, 0.00, -0.00, -1.00, 1191.3, 120.8)">e</text><text xml:space="preserve" font-family="HelveticaNeue-Light,Helvetica Neue" font-size="40.0" fill="#458DE4" transform="matrix(1.00, 0.00, -0.00, -1.00, 1212.1, 120.8)"> </text><text xml:space="preserve" font-family="HelveticaNeue-Light,Helvetica Neue" font-size="40.0" fill="#458DE4" transform="matrix(1.00, 0.00, -0.00, -1.00, 1223.2, 120.8)">d</text><text xml:space="preserve" font-family="HelveticaNeue-Light,Helvetica Neue" font-size="40.0" fill="#458DE4" transform="matrix(1.00, 0.00, -0.00, -1.00, 1246.2, 120.8)">e</text><text xml:space="preserve" font-family="HelveticaNeue-Light,Helvetica Neue" font-size="40.0" fill="#458DE4" transform="matrix(1.00, 0.00, -0.00, -1.00, 1266.9, 120.8)">s</text><text xml:space="preserve" font-family="HelveticaNeue-Light,Helvetica Neue" font-size="40.0" fill="#458DE4" transform="matrix(1.00, 0.00, -0.00, -1.00, 1286.2, 120.8)">i</text><text xml:space="preserve" font-family="HelveticaNeue-Light,Helvetica Neue" font-size="40.0" fill="#458DE4" transform="matrix(1.00, 0.00, -0.00, -1.00, 1293.6, 120.8)">g</text><text xml:space="preserve" font-family="HelveticaNeue-Light,Helvetica Neue" font-size="40.0" fill="#458DE4" transform="matrix(1.00, 0.00, -0.00, -1.00, 1315.8, 120.8)">n</text><text xml:space="preserve" font-family="HelveticaNeue-Light,Helvetica Neue" font-size="40.0" fill="#458DE4" transform="matrix(1.00, 0.00, -0.00, -1.00, 1337.3, 120.8)">e</text><text xml:space="preserve" font-family="HelveticaNeue-Light,Helvetica Neue" font-size="40.0" fill="#458DE4" transform="matrix(1.00, 0.00, -0.00, -1.00, 1358.0, 120.8)">r</text><text xml:space="preserve" font-family="HelveticaNeue-Light,Helvetica Neue" font-size="40.0" fill="#458DE4" transform="matrix(1.00, 0.00, -0.00, -1.00, 1370.6, 120.8)">s</text><text xml:space="preserve" font-family="HelveticaNeue-Light,Helvetica Neue" font-size="40.0" fill="#458DE4" transform="matrix(1.00, 0.00, -0.00, -1.00, 343.6, 131.6)">d</text><text xml:space="preserve" font-family="HelveticaNeue-Light,Helvetica Neue" font-size="40.0" fill="#458DE4" transform="matrix(1.00, 0.00, -0.00, -1.00, 366.6, 131.6)">e</text><text xml:space="preserve" font-family="HelveticaNeue-Light,Helvetica Neue" font-size="40.0" fill="#458DE4" transform="matrix(1.00, 0.00, -0.00, -1.00, 387.3, 131.6)">s</text><text xml:space="preserve" font-family="HelveticaNeue-Light,Helvetica Neue" font-size="40.0" fill="#458DE4" transform="matrix(1.00, 0.00, -0.00, -1.00, 406.6, 131.6)">i</text><text xml:space="preserve" font-family="HelveticaNeue-Light,Helvetica Neue" font-size="40.0" fill="#458DE4" transform="matrix(1.00, 0.00, -0.00, -1.00, 414.0, 131.6)">g</text><text xml:space="preserve" font-family="HelveticaNeue-Light,Helvetica Neue" font-size="40.0" fill="#458DE4" transform="matrix(1.00, 0.00, -0.00, -1.00, 436.2, 131.6)">n</text><text xml:space="preserve" font-family="HelveticaNeue-Light,Helvetica Neue" font-size="40.0" fill="#458DE4" transform="matrix(1.00, 0.00, -0.00, -1.00, 457.7, 131.6)">e</text><text xml:space="preserve" font-family="HelveticaNeue-Light,Helvetica Neue" font-size="40.0" fill="#458DE4" transform="matrix(1.00, 0.00, -0.00, -1.00, 478.4, 131.6)">r</text><text xml:space="preserve" font-family="HelveticaNeue-Light,Helvetica Neue" font-size="40.0" fill="#458DE4" transform="matrix(1.00, 0.00, -0.00, -1.00, 491.0, 131.6)">s</text><text xml:space="preserve" font-family="HelveticaNeue-Light,Helvetica Neue" font-size="40.0" fill="#747373" transform="matrix(1.00, 0.00, -0.00, -1.00, 368.6, 279.2)">U</text><text xml:space="preserve" font-family="HelveticaNeue-Light,Helvetica Neue" font-size="40.0" fill="#747373" transform="matrix(1.00, 0.00, -0.00, -1.00, 396.0, 279.2)">s</text><text xml:space="preserve" font-family="HelveticaNeue-Light,Helvetica Neue" font-size="40.0" fill="#747373" transform="matrix(1.00, 0.00, -0.00, -1.00, 415.2, 279.2)">e</text><text xml:space="preserve" font-family="HelveticaNeue-Light,Helvetica Neue" font-size="40.0" fill="#747373" transform="matrix(1.00, 0.00, -0.00, -1.00, 436.0, 279.2)">r</text><text xml:space="preserve" font-family="HelveticaNeue-Light,Helvetica Neue" font-size="40.0" fill="#747373" transform="matrix(1.00, 0.00, -0.00, -1.00, 448.6, 279.2)"> </text><text xml:space="preserve" font-family="HelveticaNeue-Light,Helvetica Neue" font-size="40.0" fill="#747373" transform="matrix(1.00, 0.00, -0.00, -1.00, 459.7, 279.2)">E</text><text xml:space="preserve" font-family="HelveticaNeue-Light,Helvetica Neue" font-size="40.0" fill="#747373" transform="matrix(1.00, 0.00, -0.00, -1.00, 483.4, 279.2)">x</text><text xml:space="preserve" font-family="HelveticaNeue-Light,Helvetica Neue" font-size="40.0" fill="#747373" transform="matrix(1.00, 0.00, -0.00, -1.00, 502.7, 279.2)">p</text><text xml:space="preserve" font-family="HelveticaNeue-Light,Helvetica Neue" font-size="40.0" fill="#747373" transform="matrix(1.00, 0.00, -0.00, -1.00, 525.6, 279.2)">e</text><text xml:space="preserve" font-family="HelveticaNeue-Light,Helvetica Neue" font-size="40.0" fill="#747373" transform="matrix(1.00, 0.00, -0.00, -1.00, 546.4, 279.2)">r</text><text xml:space="preserve" font-family="HelveticaNeue-Light,Helvetica Neue" font-size="40.0" fill="#747373" transform="matrix(1.00, 0.00, -0.00, -1.00, 559.0, 279.2)">i</text><text xml:space="preserve" font-family="HelveticaNeue-Light,Helvetica Neue" font-size="40.0" fill="#747373" transform="matrix(1.00, 0.00, -0.00, -1.00, 566.4, 279.2)">e</text><text xml:space="preserve" font-family="HelveticaNeue-Light,Helvetica Neue" font-size="40.0" fill="#747373" transform="matrix(1.00, 0.00, -0.00, -1.00, 587.2, 279.2)">n</text><text xml:space="preserve" font-family="HelveticaNeue-Light,Helvetica Neue" font-size="40.0" fill="#747373" transform="matrix(1.00, 0.00, -0.00, -1.00, 608.6, 279.2)">c</text><text xml:space="preserve" font-family="HelveticaNeue-Light,Helvetica Neue" font-size="40.0" fill="#747373" transform="matrix(1.00, 0.00, -0.00, -1.00, 629.4, 279.2)">e</text><text xml:space="preserve" font-family="HelveticaNeue-Light,Helvetica Neue" font-size="40.0" fill="#747373" transform="matrix(1.00, 0.00, -0.00, -1.00, 650.2, 279.2)"> </text><text xml:space="preserve" font-family="HelveticaNeue-Light,Helvetica Neue" font-size="40.0" fill="#747373" transform="matrix(1.00, 0.00, -0.00, -1.00, 661.3, 279.2)">S</text><text xml:space="preserve" font-family="HelveticaNeue-Light,Helvetica Neue" font-size="40.0" fill="#747373" transform="matrix(1.00, 0.00, -0.00, -1.00, 686.5, 279.2)">p</text><text xml:space="preserve" font-family="HelveticaNeue-Light,Helvetica Neue" font-size="40.0" fill="#747373" transform="matrix(1.00, 0.00, -0.00, -1.00, 709.4, 279.2)">e</text><text xml:space="preserve" font-family="HelveticaNeue-Light,Helvetica Neue" font-size="40.0" fill="#747373" transform="matrix(1.00, 0.00, -0.00, -1.00, 730.2, 279.2)">c</text><text xml:space="preserve" font-family="HelveticaNeue-Light,Helvetica Neue" font-size="40.0" fill="#747373" transform="matrix(1.00, 0.00, -0.00, -1.00, 751.0, 279.2)">i</text><text xml:space="preserve" font-family="HelveticaNeue-Light,Helvetica Neue" font-size="40.0" fill="#747373" transform="matrix(1.00, 0.00, -0.00, -1.00, 758.4, 279.2)">a</text><text xml:space="preserve" font-family="HelveticaNeue-Light,Helvetica Neue" font-size="40.0" fill="#747373" transform="matrix(1.00, 0.00, -0.00, -1.00, 779.1, 279.2)">l</text><text xml:space="preserve" font-family="HelveticaNeue-Light,Helvetica Neue" font-size="40.0" fill="#747373" transform="matrix(1.00, 0.00, -0.00, -1.00, 786.5, 279.2)">i</text><text xml:space="preserve" font-family="HelveticaNeue-Light,Helvetica Neue" font-size="40.0" fill="#747373" transform="matrix(1.00, 0.00, -0.00, -1.00, 793.9, 279.2)">s</text><text xml:space="preserve" font-family="HelveticaNeue-Light,Helvetica Neue" font-size="40.0" fill="#747373" transform="matrix(1.00, 0.00, -0.00, -1.00, 813.2, 279.2)">t</text><text xml:space="preserve" font-family="HelveticaNeue-Light,Helvetica Neue" font-size="40.0" fill="#747373" transform="matrix(1.00, 0.00, -0.00, -1.00, 681.7, 399.0)">U</text><text xml:space="preserve" font-family="HelveticaNeue-Light,Helvetica Neue" font-size="40.0" fill="#747373" transform="matrix(1.00, 0.00, -0.00, -1.00, 709.1, 399.0)">I</text><text xml:space="preserve" font-family="HelveticaNeue-Light,Helvetica Neue" font-size="40.0" fill="#747373" transform="matrix(1.00, 0.00, -0.00, -1.00, 718.0, 399.0)">/</text><text xml:space="preserve" font-family="HelveticaNeue-Light,Helvetica Neue" font-size="40.0" fill="#747373" transform="matrix(1.00, 0.00, -0.00, -1.00, 731.3, 399.0)">V</text><text xml:space="preserve" font-family="HelveticaNeue-Light,Helvetica Neue" font-size="40.0" fill="#747373" transform="matrix(1.00, 0.00, -0.00, -1.00, 755.3, 399.0)">i</text><text xml:space="preserve" font-family="HelveticaNeue-Light,Helvetica Neue" font-size="40.0" fill="#747373" transform="matrix(1.00, 0.00, -0.00, -1.00, 762.7, 399.0)">s</text><text xml:space="preserve" font-family="HelveticaNeue-Light,Helvetica Neue" font-size="40.0" fill="#747373" transform="matrix(1.00, 0.00, -0.00, -1.00, 781.9, 399.0)">u</text><text xml:space="preserve" font-family="HelveticaNeue-Light,Helvetica Neue" font-size="40.0" fill="#747373" transform="matrix(1.00, 0.00, -0.00, -1.00, 803.4, 399.0)">a</text><text xml:space="preserve" font-family="HelveticaNeue-Light,Helvetica Neue" font-size="40.0" fill="#747373" transform="matrix(1.00, 0.00, -0.00, -1.00, 824.2, 399.0)">l</text><text xml:space="preserve" font-family="HelveticaNeue-Light,Helvetica Neue" font-size="40.0" fill="#747373" transform="matrix(1.00, 0.00, -0.00, -1.00, 831.6, 399.0)"> </text><text xml:space="preserve" font-family="HelveticaNeue-Light,Helvetica Neue" font-size="40.0" fill="#747373" transform="matrix(1.00, 0.00, -0.00, -1.00, 842.7, 399.0)">D</text><text xml:space="preserve" font-family="HelveticaNeue-Light,Helvetica Neue" font-size="40.0" fill="#747373" transform="matrix(1.00, 0.00, -0.00, -1.00, 870.1, 399.0)">e</text><text xml:space="preserve" font-family="HelveticaNeue-Light,Helvetica Neue" font-size="40.0" fill="#747373" transform="matrix(1.00, 0.00, -0.00, -1.00, 890.8, 399.0)">s</text><text xml:space="preserve" font-family="HelveticaNeue-Light,Helvetica Neue" font-size="40.0" fill="#747373" transform="matrix(1.00, 0.00, -0.00, -1.00, 910.1, 399.0)">i</text><text xml:space="preserve" font-family="HelveticaNeue-Light,Helvetica Neue" font-size="40.0" fill="#747373" transform="matrix(1.00, 0.00, -0.00, -1.00, 917.5, 399.0)">g</text><text xml:space="preserve" font-family="HelveticaNeue-Light,Helvetica Neue" font-size="40.0" fill="#747373" transform="matrix(1.00, 0.00, -0.00, -1.00, 939.7, 399.0)">n</text><text xml:space="preserve" font-family="HelveticaNeue-Light,Helvetica Neue" font-size="40.0" fill="#747373" transform="matrix(1.00, 0.00, -0.00, -1.00, 961.2, 399.0)">e</text><text xml:space="preserve" font-family="HelveticaNeue-Light,Helvetica Neue" font-size="40.0" fill="#747373" transform="matrix(1.00, 0.00, -0.00, -1.00, 982.0, 399.0)">r</text><path d="M 0.0 0.0 L 264.3 0.0 L 267.3 0.0 " fill="none" stroke="#3773BD" stroke-width="6.00" transform="matrix(0.57, -0.82, -0.82, -0.57, 908.0, 412.0)"></path><path d="M 1049.3 188.4 L 1072.8 175.5 L 1069.0 202.1 Z M 1049.3 188.4 " fill="#3773BD"></path><path d="M 0.0 0.0 L 145.2 0.0 L 148.2 0.0 " fill="none" stroke="#3773BD" stroke-width="6.00" transform="matrix(-0.71, -0.71, -0.71, 0.71, 591.3, 275.6)"></path><path d="M 480.1 181.4 L 471.6 156.0 L 497.0 164.4 Z M 480.1 181.4 " fill="#3773BD"></path><text xml:space="preserve" font-family="HelveticaNeue-Light,Helvetica Neue" font-size="50.0" fill="#000000" transform="matrix(1.00, 0.00, -0.00, -1.00, 533.1, 317.5)">A</text><text xml:space="preserve" font-family="HelveticaNeue-Light,Helvetica Neue" font-size="50.0" fill="#000000" transform="matrix(1.00, 0.00, -0.00, -1.00, 564.6, 317.5)">m</text><text xml:space="preserve" font-family="HelveticaNeue-Light,Helvetica Neue" font-size="50.0" fill="#000000" transform="matrix(1.00, 0.00, -0.00, -1.00, 606.3, 317.5)">y</text><text xml:space="preserve" font-family="HelveticaNeue-Light,Helvetica Neue" font-size="50.0" fill="#000000" transform="matrix(1.00, 0.00, -0.00, -1.00, 647.9, 446.4)">S</text><text xml:space="preserve" font-family="HelveticaNeue-Light,Helvetica Neue" font-size="50.0" fill="#000000" transform="matrix(1.00, 0.00, -0.00, -1.00, 679.4, 446.4)">t</text><text xml:space="preserve" font-family="HelveticaNeue-Light,Helvetica Neue" font-size="50.0" fill="#000000" transform="matrix(1.00, 0.00, -0.00, -1.00, 694.2, 446.4)">e</text><text xml:space="preserve" font-family="HelveticaNeue-Light,Helvetica Neue" font-size="50.0" fill="#000000" transform="matrix(1.00, 0.00, -0.00, -1.00, 720.1, 446.4)">p</text><text xml:space="preserve" font-family="HelveticaNeue-Light,Helvetica Neue" font-size="50.0" fill="#000000" transform="matrix(1.00, 0.00, -0.00, -1.00, 748.8, 446.4)">h</text><text xml:space="preserve" font-family="HelveticaNeue-Light,Helvetica Neue" font-size="50.0" fill="#000000" transform="matrix(1.00, 0.00, -0.00, -1.00, 775.7, 446.4)">e</text><text xml:space="preserve" font-family="HelveticaNeue-Light,Helvetica Neue" font-size="50.0" fill="#000000" transform="matrix(1.00, 0.00, -0.00, -1.00, 801.6, 446.4)">n</text><image xlink:href="../../48780AA6-E3D8-4FE5-A815-D336DC6E1FAB/assets/16C9B1505207E2F83641DF81181167E8.png" width="1064.00" height="1212.00" transform="matrix(0.60, 0.00, -0.00, -0.60, 1272.0, 969.0)"></image><path d="M 521.0 506.0 L 521.0 479.3 L 625.2 541.4 L 521.0 603.5 L 521.0 577.0 L 440.0 577.0 L 440.0 506.0 Z M 520.5 506.0 " fill="#458DE4"></path><g><clipPath id="clip0x6000008beb40"><path d="M 429.0 603.5 L 625.2 603.5 L 625.2 479.3 L 429.0 479.3 Z M 429.0 603.5 "></path></clipPath><g clip-path="url(#clip0x6000008beb40)"><text xml:space="preserve" font-family="HelveticaNeue-Light,Helvetica Neue" font-size="50.0" fill="#FEFFFF" transform="matrix(1.00, 0.00, -0.00, -1.00, 458.7, 523.2)">r</text><text xml:space="preserve" font-family="HelveticaNeue-Light,Helvetica Neue" font-size="50.0" fill="#FEFFFF" transform="matrix(1.00, 0.00, -0.00, -1.00, 474.5, 523.2)">a</text><text xml:space="preserve" font-family="HelveticaNeue-Light,Helvetica Neue" font-size="50.0" fill="#FEFFFF" transform="matrix(1.00, 0.00, -0.00, -1.00, 500.4, 523.2)">n</text><text xml:space="preserve" font-family="HelveticaNeue-Light,Helvetica Neue" font-size="50.0" fill="#FEFFFF" transform="matrix(1.00, 0.00, -0.00, -1.00, 527.3, 523.2)">k</text></g></g><path d="M 1312.0 506.0 L 1312.0 479.3 L 1416.7 541.4 L 1312.0 603.5 L 1312.0 577.0 L 1223.0 577.0 L 1223.0 506.0 Z M 1312.0 506.0 " fill="#3773BD"></path><g><clipPath id="clip0x6000008bea20"><path d="M 1212.3 603.5 L 1416.7 603.5 L 1416.7 479.3 L 1212.3 479.3 Z M 1212.3 603.5 "></path></clipPath><g clip-path="url(#clip0x6000008bea20)"><text xml:space="preserve" font-family="HelveticaNeue-Light,Helvetica Neue" font-size="50.0" fill="#FEFFFF" transform="matrix(1.00, 0.00, -0.00, -1.00, 1230.9, 523.2)">p</text><text xml:space="preserve" font-family="HelveticaNeue-Light,Helvetica Neue" font-size="50.0" fill="#FEFFFF" transform="matrix(1.00, 0.00, -0.00, -1.00, 1259.6, 523.2)">r</text><text xml:space="preserve" font-family="HelveticaNeue-Light,Helvetica Neue" font-size="50.0" fill="#FEFFFF" transform="matrix(1.00, 0.00, -0.00, -1.00, 1275.3, 523.2)">u</text><text xml:space="preserve" font-family="HelveticaNeue-Light,Helvetica Neue" font-size="50.0" fill="#FEFFFF" transform="matrix(1.00, 0.00, -0.00, -1.00, 1302.2, 523.2)">n</text><text xml:space="preserve" font-family="HelveticaNeue-Light,Helvetica Neue" font-size="50.0" fill="#FEFFFF" transform="matrix(1.00, 0.00, -0.00, -1.00, 1329.0, 523.2)">e</text></g></g></g></svg>