<?xml version="1.0" encoding="UTF-8" standalone="no"?><svg xmlns="http://www.w3.org/2000/svg" xmlns:xlink="http://www.w3.org/1999/xlink" clip-rule="evenodd" stroke-miterlimit="10" viewBox="0 0 1920 1080"><desc>SVG generated by Keynote</desc><defs></defs><g transform="matrix(1.00, 0.00, -0.00, -1.00, 0.0, 1080.0)"><path d="M 0.0 1080.0 L 1920.0 1080.0 L 1920.0 0.0 L 0.0 0.0 Z M 0.0 1080.0 " fill="#FEFFFE"></path><path d="M 0.5 0.5 L 1752.5 0.5 L 1752.5 0.5 L 0.5 0.5 Z M 0.0 0.0 " fill="none" stroke="#9A9A99" stroke-width="1.00" transform="matrix(1.00, 0.00, 0.00, -1.00, 84.0, 862.0)"></path><path d="M 1444.0 525.0 L 1444.0 486.5 L 1538.1 575.8 L 1444.0 665.2 L 1444.0 627.0 L 1095.0 627.0 L 1095.0 525.0 Z M 1444.3 524.9 " fill="#458DE4"></path><g><clipPath id="clip0x6180004b39e0"><path d="M 1084.2 486.5 L 1538.1 486.5 L 1538.1 665.2 L 1084.2 665.2 Z M 1084.2 486.5 "></path></clipPath><g clip-path="url(#clip0x6180004b39e0)"><text xml:space="preserve" font-family="HelveticaNeue-Light,Helvetica Neue" font-size="50.0" fill="#FEFFFF" transform="matrix(1.00, 0.00, -0.00, -1.00, 1098.9, 557.6)"> </text><text xml:space="preserve" font-family="HelveticaNeue-Light,Helvetica Neue" font-size="50.0" fill="#FEFFFF" transform="matrix(1.00, 0.00, -0.00, -1.00, 1112.8, 557.6)"> </text><text xml:space="preserve" font-family="HelveticaNeue-Light,Helvetica Neue" font-size="50.0" fill="#FEFFFF" transform="matrix(1.00, 0.00, -0.00, -1.00, 1126.7, 557.6)"> </text><text xml:space="preserve" font-family="HelveticaNeue-Light,Helvetica Neue" font-size="50.0" fill="#FEFFFF" transform="matrix(1.00, 0.00, -0.00, -1.00, 1140.6, 557.6)"> </text><text xml:space="preserve" font-family="HelveticaNeue-Light,Helvetica Neue" font-size="50.0" fill="#FEFFFF" transform="matrix(1.00, 0.00, -0.00, -1.00, 1154.5, 557.6)"> </text><text xml:space="preserve" font-family="HelveticaNeue-Light,Helvetica Neue" font-size="50.0" fill="#FEFFFF" transform="matrix(1.00, 0.00, -0.00, -1.00, 1168.4, 557.6)"> </text><text xml:space="preserve" font-family="HelveticaNeue-Light,Helvetica Neue" font-size="50.0" fill="#FEFFFF" transform="matrix(1.00, 0.00, -0.00, -1.00, 1182.3, 557.6)"> </text><text xml:space="preserve" font-family="HelveticaNeue-Light,Helvetica Neue" font-size="50.0" fill="#FEFFFF" transform="matrix(1.00, 0.00, -0.00, -1.00, 1196.2, 557.6)"> </text><text xml:space="preserve" font-family="HelveticaNeue-Light,Helvetica Neue" font-size="50.0" fill="#FEFFFF" transform="matrix(1.00, 0.00, -0.00, -1.00, 1210.1, 557.6)">m</text><text xml:space="preserve" font-family="HelveticaNeue-Light,Helvetica Neue" font-size="50.0" fill="#FEFFFF" transform="matrix(1.00, 0.00, -0.00, -1.00, 1251.8, 557.6)">a</text><text xml:space="preserve" font-family="HelveticaNeue-Light,Helvetica Neue" font-size="50.0" fill="#FEFFFF" transform="matrix(1.00, 0.00, -0.00, -1.00, 1277.7, 557.6)">t</text><text xml:space="preserve" font-family="HelveticaNeue-Light,Helvetica Neue" font-size="50.0" fill="#FEFFFF" transform="matrix(1.00, 0.00, -0.00, -1.00, 1292.5, 557.6)">c</text><text xml:space="preserve" font-family="HelveticaNeue-Light,Helvetica Neue" font-size="50.0" fill="#FEFFFF" transform="matrix(1.00, 0.00, -0.00, -1.00, 1318.5, 557.6)">h</text></g></g><text xml:space="preserve" font-family="HelveticaNeue-Light,Helvetica Neue" font-size="72.0" fill="#000000" transform="matrix(1.00, 0.00, -0.00, -1.00, 88.0, 907.4)">T</text><text xml:space="preserve" font-family="HelveticaNeue-Light,Helvetica Neue" font-size="72.0" fill="#000000" transform="matrix(1.00, 0.00, -0.00, -1.00, 128.0, 907.4)">h</text><text xml:space="preserve" font-family="HelveticaNeue-Light,Helvetica Neue" font-size="72.0" fill="#000000" transform="matrix(1.00, 0.00, -0.00, -1.00, 166.7, 907.4)">e</text><text xml:space="preserve" font-family="HelveticaNeue-Light,Helvetica Neue" font-size="72.0" fill="#000000" transform="matrix(1.00, 0.00, -0.00, -1.00, 204.1, 907.4)"> </text><text xml:space="preserve" font-family="HelveticaNeue-Light,Helvetica Neue" font-size="72.0" fill="#000000" transform="matrix(1.00, 0.00, -0.00, -1.00, 224.1, 907.4)">D</text><text xml:space="preserve" font-family="HelveticaNeue-Light,Helvetica Neue" font-size="72.0" fill="#000000" transform="matrix(1.00, 0.00, -0.00, -1.00, 273.4, 907.4)">a</text><text xml:space="preserve" font-family="HelveticaNeue-Light,Helvetica Neue" font-size="72.0" fill="#000000" transform="matrix(1.00, 0.00, -0.00, -1.00, 310.8, 907.4)">t</text><text xml:space="preserve" font-family="HelveticaNeue-Light,Helvetica Neue" font-size="72.0" fill="#000000" transform="matrix(1.00, 0.00, -0.00, -1.00, 332.1, 907.4)">a</text><g><clipPath id="clip0x6180008a8280"><path d="M 811.4 391.5 L 933.6 320.6 L 922.4 301.2 L 800.1 372.2 Z M 811.4 391.5 "></path></clipPath><g clip-path="url(#clip0x6180008a8280)"><path d="M 17.9 0.0 L 20.4 0.0 L 139.4 0.0 " fill="none" stroke="#ABABAB" stroke-width="5.00" transform="matrix(0.86, -0.50, -0.50, -0.86, 806.6, 381.4)"></path><path d="M 829.4 379.9 L 806.6 381.4 L 819.1 362.3 Z M 829.4 379.9 " fill="#ABABAB"></path></g></g><g><clipPath id="clip0x6180008a3480"><path d="M 800.0 320.9 L 922.6 391.3 L 933.8 371.9 L 811.2 301.5 Z M 800.0 320.9 "></path></clipPath><g clip-path="url(#clip0x6180008a3480)"><path d="M 0.0 0.0 L 119.0 0.0 L 121.5 0.0 " fill="none" stroke="#ABABAB" stroke-width="5.00" transform="matrix(0.87, 0.50, 0.50, -0.87, 806.4, 311.7)"></path><path d="M 914.7 362.1 L 927.3 381.1 L 904.6 379.8 Z M 914.7 362.1 " fill="#ABABAB"></path></g></g><g><clipPath id="clip0x618000eb7640"><path d="M 805.4 256.3 L 928.3 256.3 L 928.3 278.7 L 805.4 278.7 Z M 805.4 256.3 "></path></clipPath><g clip-path="url(#clip0x618000eb7640)"><path d="M 17.6 -0.0 L 20.4 -0.0 L 100.5 -0.0 L 102.6 -0.0 " fill="none" stroke="#ABABAB" stroke-width="5.00" transform="matrix(1.00, 0.00, 0.00, -1.00, 806.4, 267.5)"></path><path d="M 906.5 257.3 L 926.9 267.5 L 906.5 277.7 Z M 906.5 257.3 " fill="#ABABAB"></path><path d="M 826.5 277.7 L 806.1 267.5 L 826.5 257.3 Z M 826.5 277.7 " fill="#ABABAB"></path></g></g><g><clipPath id="clip0x6180014b0440"><path d="M 788.9 607.1 L 950.9 607.1 L 950.9 696.6 L 788.9 696.6 Z M 788.9 607.1 "></path></clipPath><g clip-path="url(#clip0x6180014b0440)"><text xml:space="preserve" font-family="HelveticaNeue-LightItalic,Helvetica Neue" font-style="italic" font-size="50.0" fill="#000000" transform="matrix(1.00, 0.00, -0.00, -1.00, 804.2, 633.9)">U</text><text xml:space="preserve" font-family="HelveticaNeue-LightItalic,Helvetica Neue" font-style="italic" font-size="33.3" fill="#000000" transform="matrix(1.00, 0.00, -0.00, -1.00, 839.4, 630.4)">1</text><text xml:space="preserve" font-family="HelveticaNeue-Light,Helvetica Neue" font-size="50.0" fill="#000000" transform="matrix(1.00, 0.00, -0.00, -1.00, 857.9, 633.9)">x</text><text xml:space="preserve" font-family="HelveticaNeue-LightItalic,Helvetica Neue" font-style="italic" font-size="50.0" fill="#000000" transform="matrix(1.00, 0.00, -0.00, -1.00, 882.0, 633.9)">U</text><text xml:space="preserve" font-family="HelveticaNeue-LightItalic,Helvetica Neue" font-style="italic" font-size="33.3" fill="#000000" transform="matrix(1.00, 0.00, -0.00, -1.00, 917.2, 630.4)">2</text></g></g><g><clipPath id="clip0x6080006af9c0"><path d="M 784.6 511.4 L 955.2 511.4 L 955.2 600.9 L 784.6 600.9 Z M 784.6 511.4 "></path></clipPath><g clip-path="url(#clip0x6080006af9c0)"><text xml:space="preserve" font-family="HelveticaNeue-LightItalic,Helvetica Neue" font-style="italic" font-size="50.0" fill="#000000" transform="matrix(1.00, 0.00, -0.00, -1.00, 799.9, 538.2)">U</text><text xml:space="preserve" font-family="HelveticaNeue-LightItalic,Helvetica Neue" font-style="italic" font-size="33.3" fill="#000000" transform="matrix(1.00, 0.00, -0.00, -1.00, 835.1, 534.7)">n</text><text xml:space="preserve" font-family="HelveticaNeue-Light,Helvetica Neue" font-size="50.0" fill="#000000" transform="matrix(1.00, 0.00, -0.00, -1.00, 853.0, 538.2)">x</text><text xml:space="preserve" font-family="HelveticaNeue-LightItalic,Helvetica Neue" font-style="italic" font-size="50.0" fill="#000000" transform="matrix(1.00, 0.00, -0.00, -1.00, 877.0, 538.2)">U</text><text xml:space="preserve" font-family="HelveticaNeue-LightItalic,Helvetica Neue" font-style="italic" font-size="33.3" fill="#000000" transform="matrix(1.00, 0.00, -0.00, -1.00, 912.2, 534.7)">m</text></g></g><g><clipPath id="clip0x6080004aec40"><path d="M 802.3 555.8 L 802.3 636.3 L 891.8 636.3 L 891.8 555.8 Z M 802.3 555.8 "></path></clipPath><g clip-path="url(#clip0x6080004aec40)"><text xml:space="preserve" font-family="HelveticaNeue-Light,Helvetica Neue" font-size="50.0" fill="#000000" transform="matrix(0.00, 1.00, 1.00, -0.00, 865.0, 571.1)">…</text></g></g><text xml:space="preserve" font-family="HelveticaNeue-Light,Helvetica Neue" font-size="50.0" fill="#000000" transform="matrix(1.00, 0.00, -0.00, -1.00, 716.7, 754.0)">P</text><text xml:space="preserve" font-family="HelveticaNeue-Light,Helvetica Neue" font-size="50.0" fill="#000000" transform="matrix(1.00, 0.00, -0.00, -1.00, 748.2, 754.0)">o</text><text xml:space="preserve" font-family="HelveticaNeue-Light,Helvetica Neue" font-size="50.0" fill="#000000" transform="matrix(1.00, 0.00, -0.00, -1.00, 776.0, 754.0)">t</text><text xml:space="preserve" font-family="HelveticaNeue-Light,Helvetica Neue" font-size="50.0" fill="#000000" transform="matrix(1.00, 0.00, -0.00, -1.00, 790.8, 754.0)">e</text><text xml:space="preserve" font-family="HelveticaNeue-Light,Helvetica Neue" font-size="50.0" fill="#000000" transform="matrix(1.00, 0.00, -0.00, -1.00, 816.7, 754.0)">n</text><text xml:space="preserve" font-family="HelveticaNeue-Light,Helvetica Neue" font-size="50.0" fill="#000000" transform="matrix(1.00, 0.00, -0.00, -1.00, 843.6, 754.0)">t</text><text xml:space="preserve" font-family="HelveticaNeue-Light,Helvetica Neue" font-size="50.0" fill="#000000" transform="matrix(1.00, 0.00, -0.00, -1.00, 858.4, 754.0)">i</text><text xml:space="preserve" font-family="HelveticaNeue-Light,Helvetica Neue" font-size="50.0" fill="#000000" transform="matrix(1.00, 0.00, -0.00, -1.00, 867.6, 754.0)">a</text><text xml:space="preserve" font-family="HelveticaNeue-Light,Helvetica Neue" font-size="50.0" fill="#000000" transform="matrix(1.00, 0.00, -0.00, -1.00, 893.6, 754.0)">l</text><text xml:space="preserve" font-family="HelveticaNeue-Light,Helvetica Neue" font-size="50.0" fill="#000000" transform="matrix(1.00, 0.00, -0.00, -1.00, 902.8, 754.0)"> </text><text xml:space="preserve" font-family="HelveticaNeue-Light,Helvetica Neue" font-size="50.0" fill="#000000" transform="matrix(1.00, 0.00, -0.00, -1.00, 916.7, 754.0)">P</text><text xml:space="preserve" font-family="HelveticaNeue-Light,Helvetica Neue" font-size="50.0" fill="#000000" transform="matrix(1.00, 0.00, -0.00, -1.00, 948.2, 754.0)">a</text><text xml:space="preserve" font-family="HelveticaNeue-Light,Helvetica Neue" font-size="50.0" fill="#000000" transform="matrix(1.00, 0.00, -0.00, -1.00, 974.2, 754.0)">i</text><text xml:space="preserve" font-family="HelveticaNeue-Light,Helvetica Neue" font-size="50.0" fill="#000000" transform="matrix(1.00, 0.00, -0.00, -1.00, 983.4, 754.0)">r</text><text xml:space="preserve" font-family="HelveticaNeue-Light,Helvetica Neue" font-size="50.0" fill="#000000" transform="matrix(1.00, 0.00, -0.00, -1.00, 999.2, 754.0)">s</text><g><clipPath id="clip0x608000cbfa40"><path d="M 818.1 510.1 L 729.4 405.9 L 711.1 421.4 L 799.8 525.6 Z M 818.1 510.1 "></path></clipPath><g clip-path="url(#clip0x608000cbfa40)"><path d="M 0.0 0.0 L 112.6 0.0 L 115.1 0.0 " fill="none" stroke="#ABABAB" stroke-width="5.00" transform="matrix(-0.65, -0.76, -0.76, 0.65, 808.3, 517.1)"></path><path d="M 5.5 3.0 C 5.5 4.4 4.4 5.5 3.0 5.5 C 1.6 5.5 0.5 4.4 0.5 3.0 C 0.5 1.6 1.6 0.5 3.0 0.5 C 4.4 0.5 5.5 1.6 5.5 3.0 Z M 5.5 3.0 " fill="none" stroke="#ABABAB" stroke-width="1.47" transform="matrix(2.59, -2.20, -2.20, -2.59, 726.9, 437.2)"></path></g></g><g><clipPath id="clip0x6080008a8d60"><path d="M 933.9 525.6 L 1022.7 421.4 L 1004.4 405.9 L 915.7 510.1 Z M 933.9 525.6 "></path></clipPath><g clip-path="url(#clip0x6080008a8d60)"><path d="M 0.0 0.0 L 112.6 0.0 L 115.1 0.0 " fill="none" stroke="#ABABAB" stroke-width="5.00" transform="matrix(0.65, -0.76, -0.76, -0.65, 925.4, 517.1)"></path><path d="M 5.5 3.0 C 5.5 4.4 4.4 5.5 3.0 5.5 C 1.6 5.5 0.5 4.4 0.5 3.0 C 0.5 1.6 1.6 0.5 3.0 0.5 C 4.4 0.5 5.5 1.6 5.5 3.0 Z M 5.5 3.0 " fill="none" stroke="#ABABAB" stroke-width="1.47" transform="matrix(2.59, 2.20, 2.20, -2.59, 991.3, 424.0)"></path></g></g><g><clipPath id="clip0x608000cb6980"><path d="M 349.1 644.1 L 433.0 644.1 L 433.0 733.2 L 349.1 733.2 Z M 349.1 644.1 "></path></clipPath><g clip-path="url(#clip0x608000cb6980)"><text xml:space="preserve" font-family="HelveticaNeue-LightItalic,Helvetica Neue" font-style="italic" font-size="50.0" fill="#000000" transform="matrix(1.00, 0.00, -0.00, -1.00, 364.2, 670.7)">U</text><text xml:space="preserve" font-family="HelveticaNeue-LightItalic,Helvetica Neue" font-style="italic" font-size="33.3" fill="#000000" transform="matrix(1.00, 0.00, -0.00, -1.00, 399.4, 667.1)">1</text></g></g><g><clipPath id="clip0x6080008b6320"><path d="M 349.1 584.8 L 433.0 584.8 L 433.0 673.9 L 349.1 673.9 Z M 349.1 584.8 "></path></clipPath><g clip-path="url(#clip0x6080008b6320)"><text xml:space="preserve" font-family="HelveticaNeue-LightItalic,Helvetica Neue" font-style="italic" font-size="50.0" fill="#000000" transform="matrix(1.00, 0.00, -0.00, -1.00, 364.2, 611.4)">U</text><text xml:space="preserve" font-family="HelveticaNeue-LightItalic,Helvetica Neue" font-style="italic" font-size="33.3" fill="#000000" transform="matrix(1.00, 0.00, -0.00, -1.00, 399.4, 607.8)">2</text></g></g><g><clipPath id="clip0x6080006b5240"><path d="M 349.1 460.0 L 432.3 460.0 L 432.3 549.1 L 349.1 549.1 Z M 349.1 460.0 "></path></clipPath><g clip-path="url(#clip0x6080006b5240)"><text xml:space="preserve" font-family="HelveticaNeue-LightItalic,Helvetica Neue" font-style="italic" font-size="50.0" fill="#000000" transform="matrix(1.00, 0.00, -0.00, -1.00, 364.2, 486.6)">U</text><text xml:space="preserve" font-family="HelveticaNeue-LightItalic,Helvetica Neue" font-style="italic" font-size="33.3" fill="#000000" transform="matrix(1.00, 0.00, -0.00, -1.00, 399.4, 483.1)">n</text></g></g><g><clipPath id="clip0x6080006b8660"><path d="M 331.1 531.0 L 331.1 611.5 L 420.6 611.5 L 420.6 531.0 Z M 331.1 531.0 "></path></clipPath><g clip-path="url(#clip0x6080006b8660)"><text xml:space="preserve" font-family="HelveticaNeue-Light,Helvetica Neue" font-size="50.0" fill="#000000" transform="matrix(0.00, 1.00, 1.00, -0.00, 393.7, 546.2)">…</text></g></g><text xml:space="preserve" font-family="HelveticaNeue-Light,Helvetica Neue" font-size="50.0" fill="#000000" transform="matrix(1.00, 0.00, -0.00, -1.00, 285.9, 754.0)">U</text><text xml:space="preserve" font-family="HelveticaNeue-Light,Helvetica Neue" font-size="50.0" fill="#000000" transform="matrix(1.00, 0.00, -0.00, -1.00, 320.2, 754.0)">s</text><text xml:space="preserve" font-family="HelveticaNeue-Light,Helvetica Neue" font-size="50.0" fill="#000000" transform="matrix(1.00, 0.00, -0.00, -1.00, 344.2, 754.0)">e</text><text xml:space="preserve" font-family="HelveticaNeue-Light,Helvetica Neue" font-size="50.0" fill="#000000" transform="matrix(1.00, 0.00, -0.00, -1.00, 370.2, 754.0)">r</text><text xml:space="preserve" font-family="HelveticaNeue-Light,Helvetica Neue" font-size="50.0" fill="#000000" transform="matrix(1.00, 0.00, -0.00, -1.00, 385.9, 754.0)"> </text><text xml:space="preserve" font-family="HelveticaNeue-Light,Helvetica Neue" font-size="50.0" fill="#000000" transform="matrix(1.00, 0.00, -0.00, -1.00, 399.8, 754.0)">P</text><text xml:space="preserve" font-family="HelveticaNeue-Light,Helvetica Neue" font-size="50.0" fill="#000000" transform="matrix(1.00, 0.00, -0.00, -1.00, 431.3, 754.0)">o</text><text xml:space="preserve" font-family="HelveticaNeue-Light,Helvetica Neue" font-size="50.0" fill="#000000" transform="matrix(1.00, 0.00, -0.00, -1.00, 459.1, 754.0)">o</text><text xml:space="preserve" font-family="HelveticaNeue-Light,Helvetica Neue" font-size="50.0" fill="#000000" transform="matrix(1.00, 0.00, -0.00, -1.00, 486.9, 754.0)">l</text><path d="M -0.1 -0.4 L 145.9 -0.4 L 148.9 -0.4 " fill="none" stroke="#ABABAB" stroke-width="6.00" transform="matrix(1.00, 0.00, 0.00, -1.00, 1225.1, 251.6)"></path><path d="M 1371.0 240.0 L 1395.0 252.0 L 1371.0 264.0 Z M 1371.0 240.0 " fill="#ABABAB"></path><text xml:space="preserve" font-family="HelveticaNeue-Light,Helvetica Neue" font-size="50.0" fill="#000000" transform="matrix(1.00, 0.00, -0.00, -1.00, 1422.0, 379.0)">P</text><text xml:space="preserve" font-family="HelveticaNeue-Light,Helvetica Neue" font-size="50.0" fill="#000000" transform="matrix(1.00, 0.00, -0.00, -1.00, 1453.5, 379.0)">a</text><text xml:space="preserve" font-family="HelveticaNeue-Light,Helvetica Neue" font-size="50.0" fill="#000000" transform="matrix(1.00, 0.00, -0.00, -1.00, 1479.4, 379.0)">i</text><text xml:space="preserve" font-family="HelveticaNeue-Light,Helvetica Neue" font-size="50.0" fill="#000000" transform="matrix(1.00, 0.00, -0.00, -1.00, 1488.7, 379.0)">r</text><text xml:space="preserve" font-family="HelveticaNeue-Light,Helvetica Neue" font-size="50.0" fill="#000000" transform="matrix(1.00, 0.00, -0.00, -1.00, 1504.4, 379.0)">w</text><text xml:space="preserve" font-family="HelveticaNeue-Light,Helvetica Neue" font-size="50.0" fill="#000000" transform="matrix(1.00, 0.00, -0.00, -1.00, 1541.5, 379.0)">i</text><text xml:space="preserve" font-family="HelveticaNeue-Light,Helvetica Neue" font-size="50.0" fill="#000000" transform="matrix(1.00, 0.00, -0.00, -1.00, 1550.7, 379.0)">s</text><text xml:space="preserve" font-family="HelveticaNeue-Light,Helvetica Neue" font-size="50.0" fill="#000000" transform="matrix(1.00, 0.00, -0.00, -1.00, 1574.8, 379.0)">e</text><text xml:space="preserve" font-family="HelveticaNeue-Light,Helvetica Neue" font-size="50.0" fill="#000000" transform="matrix(1.00, 0.00, -0.00, -1.00, 1600.7, 379.0)"> </text><text xml:space="preserve" font-family="HelveticaNeue-Light,Helvetica Neue" font-size="50.0" fill="#000000" transform="matrix(1.00, 0.00, -0.00, -1.00, 1422.0, 319.0)">R</text><text xml:space="preserve" font-family="HelveticaNeue-Light,Helvetica Neue" font-size="50.0" fill="#000000" transform="matrix(1.00, 0.00, -0.00, -1.00, 1455.3, 319.0)">e</text><text xml:space="preserve" font-family="HelveticaNeue-Light,Helvetica Neue" font-size="50.0" fill="#000000" transform="matrix(1.00, 0.00, -0.00, -1.00, 1481.3, 319.0)">l</text><text xml:space="preserve" font-family="HelveticaNeue-Light,Helvetica Neue" font-size="50.0" fill="#000000" transform="matrix(1.00, 0.00, -0.00, -1.00, 1490.5, 319.0)">e</text><text xml:space="preserve" font-family="HelveticaNeue-Light,Helvetica Neue" font-size="50.0" fill="#000000" transform="matrix(1.00, 0.00, -0.00, -1.00, 1516.5, 319.0)">v</text><text xml:space="preserve" font-family="HelveticaNeue-Light,Helvetica Neue" font-size="50.0" fill="#000000" transform="matrix(1.00, 0.00, -0.00, -1.00, 1539.6, 319.0)">a</text><text xml:space="preserve" font-family="HelveticaNeue-Light,Helvetica Neue" font-size="50.0" fill="#000000" transform="matrix(1.00, 0.00, -0.00, -1.00, 1565.6, 319.0)">n</text><text xml:space="preserve" font-family="HelveticaNeue-Light,Helvetica Neue" font-size="50.0" fill="#000000" transform="matrix(1.00, 0.00, -0.00, -1.00, 1592.4, 319.0)">c</text><text xml:space="preserve" font-family="HelveticaNeue-Light,Helvetica Neue" font-size="50.0" fill="#000000" transform="matrix(1.00, 0.00, -0.00, -1.00, 1618.4, 319.0)">e</text><text xml:space="preserve" font-family="HelveticaNeue-Light,Helvetica Neue" font-size="50.0" fill="#000000" transform="matrix(1.00, 0.00, -0.00, -1.00, 1422.0, 233.0)">D</text><text xml:space="preserve" font-family="HelveticaNeue-Light,Helvetica Neue" font-size="50.0" fill="#000000" transform="matrix(1.00, 0.00, -0.00, -1.00, 1456.2, 233.0)">i</text><text xml:space="preserve" font-family="HelveticaNeue-Light,Helvetica Neue" font-size="50.0" fill="#000000" transform="matrix(1.00, 0.00, -0.00, -1.00, 1465.5, 233.0)">s</text><text xml:space="preserve" font-family="HelveticaNeue-Light,Helvetica Neue" font-size="50.0" fill="#000000" transform="matrix(1.00, 0.00, -0.00, -1.00, 1489.5, 233.0)">t</text><text xml:space="preserve" font-family="HelveticaNeue-Light,Helvetica Neue" font-size="50.0" fill="#000000" transform="matrix(1.00, 0.00, -0.00, -1.00, 1504.3, 233.0)">a</text><text xml:space="preserve" font-family="HelveticaNeue-Light,Helvetica Neue" font-size="50.0" fill="#000000" transform="matrix(1.00, 0.00, -0.00, -1.00, 1530.3, 233.0)">n</text><text xml:space="preserve" font-family="HelveticaNeue-Light,Helvetica Neue" font-size="50.0" fill="#000000" transform="matrix(1.00, 0.00, -0.00, -1.00, 1557.1, 233.0)">c</text><text xml:space="preserve" font-family="HelveticaNeue-Light,Helvetica Neue" font-size="50.0" fill="#000000" transform="matrix(1.00, 0.00, -0.00, -1.00, 1583.1, 233.0)">e</text><g><clipPath id="clip0x6080004a7b60"><path d="M 526.9 209.2 L 750.8 209.2 L 750.8 418.7 L 526.9 418.7 Z M 526.9 209.2 "></path></clipPath><g clip-path="url(#clip0x6080004a7b60)"><text xml:space="preserve" font-family="HelveticaNeue-Light,Helvetica Neue" font-size="50.0" fill="#000000" transform="matrix(1.00, 0.00, -0.00, -1.00, 597.3, 356.0)">P</text><text xml:space="preserve" font-family="HelveticaNeue-Light,Helvetica Neue" font-size="50.0" fill="#000000" transform="matrix(1.00, 0.00, -0.00, -1.00, 628.8, 356.0)">r</text><text xml:space="preserve" font-family="HelveticaNeue-Light,Helvetica Neue" font-size="50.0" fill="#000000" transform="matrix(1.00, 0.00, -0.00, -1.00, 643.7, 356.0)">o</text><text xml:space="preserve" font-family="HelveticaNeue-Light,Helvetica Neue" font-size="50.0" fill="#000000" transform="matrix(1.00, 0.00, -0.00, -1.00, 671.5, 356.0)">ﬁ</text><text xml:space="preserve" font-family="HelveticaNeue-Light,Helvetica Neue" font-size="50.0" fill="#000000" transform="matrix(1.00, 0.00, -0.00, -1.00, 693.7, 356.0)">l</text><text xml:space="preserve" font-family="HelveticaNeue-Light,Helvetica Neue" font-size="50.0" fill="#000000" transform="matrix(1.00, 0.00, -0.00, -1.00, 702.9, 356.0)">e</text><text xml:space="preserve" font-family="HelveticaNeue-Light,Helvetica Neue" font-size="50.0" fill="#000000" transform="matrix(1.00, 0.00, -0.00, -1.00, 728.9, 356.0)"> </text><text xml:space="preserve" font-family="HelveticaNeue-Light,Helvetica Neue" font-size="50.0" fill="#000000" transform="matrix(1.00, 0.00, -0.00, -1.00, 556.6, 296.0)">S</text><text xml:space="preserve" font-family="HelveticaNeue-Light,Helvetica Neue" font-size="50.0" fill="#000000" transform="matrix(1.00, 0.00, -0.00, -1.00, 588.1, 296.0)">e</text><text xml:space="preserve" font-family="HelveticaNeue-Light,Helvetica Neue" font-size="50.0" fill="#000000" transform="matrix(1.00, 0.00, -0.00, -1.00, 614.0, 296.0)">e</text><text xml:space="preserve" font-family="HelveticaNeue-Light,Helvetica Neue" font-size="50.0" fill="#000000" transform="matrix(1.00, 0.00, -0.00, -1.00, 640.0, 296.0)">k</text><text xml:space="preserve" font-family="HelveticaNeue-Light,Helvetica Neue" font-size="50.0" fill="#000000" transform="matrix(1.00, 0.00, -0.00, -1.00, 665.0, 296.0)">i</text><text xml:space="preserve" font-family="HelveticaNeue-Light,Helvetica Neue" font-size="50.0" fill="#000000" transform="matrix(1.00, 0.00, -0.00, -1.00, 674.2, 296.0)">n</text><text xml:space="preserve" font-family="HelveticaNeue-Light,Helvetica Neue" font-size="50.0" fill="#000000" transform="matrix(1.00, 0.00, -0.00, -1.00, 701.1, 296.0)">g</text><text xml:space="preserve" font-family="HelveticaNeue-Light,Helvetica Neue" font-size="50.0" fill="#000000" transform="matrix(1.00, 0.00, -0.00, -1.00, 728.9, 296.0)"> </text><text xml:space="preserve" font-family="HelveticaNeue-Light,Helvetica Neue" font-size="50.0" fill="#000000" transform="matrix(1.00, 0.00, -0.00, -1.00, 543.6, 236.0)">L</text><text xml:space="preserve" font-family="HelveticaNeue-Light,Helvetica Neue" font-size="50.0" fill="#000000" transform="matrix(1.00, 0.00, -0.00, -1.00, 570.5, 236.0)">o</text><text xml:space="preserve" font-family="HelveticaNeue-Light,Helvetica Neue" font-size="50.0" fill="#000000" transform="matrix(1.00, 0.00, -0.00, -1.00, 598.3, 236.0)">c</text><text xml:space="preserve" font-family="HelveticaNeue-Light,Helvetica Neue" font-size="50.0" fill="#000000" transform="matrix(1.00, 0.00, -0.00, -1.00, 624.2, 236.0)">a</text><text xml:space="preserve" font-family="HelveticaNeue-Light,Helvetica Neue" font-size="50.0" fill="#000000" transform="matrix(1.00, 0.00, -0.00, -1.00, 650.2, 236.0)">t</text><text xml:space="preserve" font-family="HelveticaNeue-Light,Helvetica Neue" font-size="50.0" fill="#000000" transform="matrix(1.00, 0.00, -0.00, -1.00, 665.0, 236.0)">i</text><text xml:space="preserve" font-family="HelveticaNeue-Light,Helvetica Neue" font-size="50.0" fill="#000000" transform="matrix(1.00, 0.00, -0.00, -1.00, 674.2, 236.0)">o</text><text xml:space="preserve" font-family="HelveticaNeue-Light,Helvetica Neue" font-size="50.0" fill="#000000" transform="matrix(1.00, 0.00, -0.00, -1.00, 702.0, 236.0)">n</text></g></g><g><clipPath id="clip0x6080004b7d00"><path d="M 737.3 343.4 L 797.8 342.8 L 797.2 282.7 L 736.7 283.3 Z M 737.3 343.4 "></path></clipPath><g clip-path="url(#clip0x6080004b7d00)"><g><clipPath id="clip0x6080006b86c0"><path d="M 737.3 343.4 L 797.8 342.8 L 797.2 282.7 L 736.7 283.3 Z M 737.3 343.4 "></path></clipPath><g clip-path="url(#clip0x6080006b86c0)"><g><clipPath id="clip0x608000cbddc0"><path d="M 727.9 354.1 L 727.8 349.6 L 727.8 345.1 L 728.8 347.2 C 730.0 349.5 732.8 352.2 735.1 353.2 L 736.8 354.0 L 732.3 354.0 L 727.9 354.1 Z M 798.6 353.3 L 800.7 352.3 C 803.0 351.1 806.0 347.9 806.7 345.9 C 807.0 345.1 807.3 344.5 807.3 344.5 C 807.4 344.5 807.5 346.5 807.5 348.9 L 807.5 353.3 L 798.6 353.3 Z M 767.8 338.9 C 766.7 338.9 764.7 337.7 764.3 336.9 C 763.4 335.1 763.1 334.2 763.0 332.6 C 762.9 331.1 762.7 330.8 762.1 330.8 C 761.4 330.8 761.2 331.2 761.0 333.1 C 760.7 336.0 759.9 337.6 758.3 338.4 C 756.7 339.2 756.0 339.2 754.4 338.4 C 752.9 337.7 751.6 335.2 751.6 333.1 C 751.5 331.2 750.9 330.7 748.8 330.7 C 745.4 330.8 743.1 329.1 743.1 326.5 C 743.1 323.4 744.7 322.0 748.6 321.6 L 751.2 321.3 L 751.2 319.9 L 751.2 318.5 L 749.0 318.5 C 745.0 318.3 743.0 316.8 743.0 313.9 C 743.0 311.0 744.6 309.6 748.5 309.2 L 751.1 309.0 L 751.1 307.6 L 751.1 306.2 L 748.7 306.0 C 744.8 305.7 742.9 304.1 742.9 301.2 C 742.8 299.9 743.1 299.3 744.2 298.2 C 745.5 297.0 745.9 296.9 748.3 296.8 L 751.0 296.6 L 751.2 294.5 C 751.5 291.6 752.2 290.2 753.6 289.2 C 755.4 288.1 756.8 288.2 758.4 289.6 C 760.0 290.9 760.3 291.6 760.7 294.5 C 760.9 296.2 761.1 296.5 761.7 296.5 C 762.4 296.5 762.5 296.2 762.6 294.7 C 762.8 292.0 763.9 289.8 765.6 289.0 C 767.3 288.1 767.6 288.1 769.2 288.9 C 771.0 289.7 771.6 290.9 771.9 293.8 C 772.1 296.4 772.1 296.4 773.3 296.4 C 774.5 296.4 774.5 296.4 774.7 293.8 C 774.8 292.4 775.1 290.8 775.4 290.3 C 776.2 289.0 778.4 288.0 779.7 288.3 C 781.2 288.7 783.0 290.1 783.0 290.9 C 783.0 291.2 783.2 291.7 783.4 291.9 C 783.6 292.1 783.8 293.2 783.9 294.3 L 784.0 296.3 L 786.7 296.4 C 789.2 296.5 789.5 296.6 790.8 297.8 C 792.5 299.5 792.7 301.4 791.4 303.2 C 790.4 304.7 789.2 305.3 786.3 305.6 L 784.1 305.9 L 784.2 307.2 L 784.2 308.6 L 786.8 308.8 C 789.6 309.0 791.2 309.8 791.9 311.4 C 793.5 314.8 791.1 317.8 786.6 318.1 L 784.3 318.2 L 784.3 319.6 L 784.3 321.0 L 786.7 321.2 C 789.4 321.4 790.5 321.9 791.7 323.4 C 793.2 325.3 792.5 328.6 790.2 329.6 C 789.6 329.9 788.1 330.2 786.8 330.3 L 784.4 330.6 L 784.2 332.8 C 783.9 335.6 783.2 337.1 781.7 338.0 C 779.8 339.2 778.5 339.0 776.7 337.3 C 775.2 335.9 775.1 335.6 775.1 333.5 C 775.0 331.7 774.9 331.2 774.2 330.9 C 772.7 330.1 772.2 330.7 772.3 333.1 C 772.3 334.4 772.0 335.8 771.7 336.4 C 770.9 337.7 769.0 338.9 767.8 338.9 Z M 806.8 282.5 L 806.0 280.8 C 804.9 278.5 802.2 275.8 799.8 274.6 L 797.8 273.6 L 806.7 273.5 L 806.8 278.0 L 806.8 282.5 Z M 727.1 283.3 L 727.1 278.8 L 727.0 274.3 L 731.5 274.3 L 736.0 274.3 L 734.3 275.0 C 732.0 276.1 729.3 278.8 728.1 281.2 L 727.1 283.3 Z M 727.1 283.3 "></path></clipPath><g clip-path="url(#clip0x608000cbddc0)"><image xlink:href="027A9C5E7855DC42DB9038D6E7728F7B.png" width="200.00" height="200.00" transform="matrix(0.40, -0.00, -0.00, -0.40, 727.9, 354.1)"></image></g></g></g></g></g></g><g><clipPath id="clip0x600001cbe6c0"><path d="M 742.9 347.8 L 797.2 347.8 L 797.2 402.1 L 742.9 402.1 Z M 742.9 347.8 "></path></clipPath><g clip-path="url(#clip0x600001cbe6c0)"><image xlink:href="D3706507F5E74B988FF66E2827FA6CF2.png" width="148.00" height="148.00" transform="matrix(0.36, 0.00, -0.00, -0.36, 743.0, 402.0)"></image></g></g><g><clipPath id="clip0x6080006b38c0"><path d="M 741.0 280.0 L 795.0 280.0 L 795.0 227.0 L 741.0 227.0 Z M 741.1 279.6 "></path></clipPath><g clip-path="url(#clip0x6080006b38c0)"><g><clipPath id="clip0x6080006a36c0"><path d="M 792.8 277.4 C 792.6 277.7 744.1 255.9 742.9 255.0 L 753.4 255.0 C 754.4 255.0 755.1 255.0 756.2 255.0 L 770.0 255.0 L 770.0 254.3 L 770.0 252.0 L 770.0 240.2 C 770.1 234.4 770.4 231.0 770.6 229.1 C 770.6 228.0 770.7 227.5 770.9 227.3 C 771.1 227.7 772.2 229.9 773.4 232.8 C 774.7 235.8 779.7 247.1 784.4 257.8 C 789.2 268.5 793.0 277.3 792.8 277.4 Z M 792.8 277.4 "></path></clipPath><g clip-path="url(#clip0x6080006a36c0)"><g><clipPath id="clip0x608000aa3180"><path d="M 741.1 227.2 L 794.8 227.2 L 794.8 279.6 L 741.1 279.6 Z M 741.1 227.2 "></path></clipPath><g clip-path="url(#clip0x608000aa3180)"><image xlink:href="EA64C8920FDF870765F27B100FB342A5.png" width="281.00" height="179.00" transform="matrix(0.47, 0.00, -0.00, -0.47, 730.0, 296.0)"></image></g></g></g></g></g></g><g><clipPath id="clip0x600001eaf720"><path d="M 1244.6 322.7 L 1396.0 322.7 L 1396.0 345.1 L 1244.6 345.1 Z M 1244.6 322.7 "></path></clipPath><g clip-path="url(#clip0x600001eaf720)"><path d="M 0.4 0.4 L 129.0 0.4 L 131.4 0.4 " fill="none" stroke="#ABABAB" stroke-width="5.00" transform="matrix(1.00, 0.00, 0.00, -1.00, 1245.6, 333.9)"></path><path d="M 1374.5 323.3 L 1394.9 333.5 L 1374.5 343.7 Z M 1374.5 323.3 " fill="#ABABAB"></path></g></g><g><clipPath id="clip0x600001cbe4e0"><path d="M 1191.1 253.4 L 1284.4 253.4 L 1284.4 433.4 L 1191.1 433.4 Z M 1191.1 253.4 "></path></clipPath><g clip-path="url(#clip0x600001cbe4e0)"><text xml:space="preserve" font-family="HelveticaNeue-Light,Helvetica Neue" font-size="100.0" fill="#ABABAB" transform="matrix(1.00, 0.00, -0.00, -1.00, 1221.1, 307.1)">}</text></g></g><g><clipPath id="clip0x600001cbe2a0"><path d="M 996.2 209.2 L 1212.9 209.2 L 1212.9 418.7 L 996.2 418.7 Z M 996.2 209.2 "></path></clipPath><g clip-path="url(#clip0x600001cbe2a0)"><text xml:space="preserve" font-family="HelveticaNeue-Light,Helvetica Neue" font-size="50.0" fill="#000000" transform="matrix(1.00, 0.00, -0.00, -1.00, 1011.0, 356.0)">P</text><text xml:space="preserve" font-family="HelveticaNeue-Light,Helvetica Neue" font-size="50.0" fill="#000000" transform="matrix(1.00, 0.00, -0.00, -1.00, 1042.5, 356.0)">r</text><text xml:space="preserve" font-family="HelveticaNeue-Light,Helvetica Neue" font-size="50.0" fill="#000000" transform="matrix(1.00, 0.00, -0.00, -1.00, 1057.3, 356.0)">o</text><text xml:space="preserve" font-family="HelveticaNeue-Light,Helvetica Neue" font-size="50.0" fill="#000000" transform="matrix(1.00, 0.00, -0.00, -1.00, 1085.1, 356.0)">ﬁ</text><text xml:space="preserve" font-family="HelveticaNeue-Light,Helvetica Neue" font-size="50.0" fill="#000000" transform="matrix(1.00, 0.00, -0.00, -1.00, 1107.3, 356.0)">l</text><text xml:space="preserve" font-family="HelveticaNeue-Light,Helvetica Neue" font-size="50.0" fill="#000000" transform="matrix(1.00, 0.00, -0.00, -1.00, 1116.6, 356.0)">e</text><text xml:space="preserve" font-family="HelveticaNeue-Light,Helvetica Neue" font-size="50.0" fill="#000000" transform="matrix(1.00, 0.00, -0.00, -1.00, 1142.5, 356.0)"> </text><text xml:space="preserve" font-family="HelveticaNeue-Light,Helvetica Neue" font-size="50.0" fill="#000000" transform="matrix(1.00, 0.00, -0.00, -1.00, 1011.0, 296.0)">S</text><text xml:space="preserve" font-family="HelveticaNeue-Light,Helvetica Neue" font-size="50.0" fill="#000000" transform="matrix(1.00, 0.00, -0.00, -1.00, 1042.5, 296.0)">e</text><text xml:space="preserve" font-family="HelveticaNeue-Light,Helvetica Neue" font-size="50.0" fill="#000000" transform="matrix(1.00, 0.00, -0.00, -1.00, 1068.4, 296.0)">e</text><text xml:space="preserve" font-family="HelveticaNeue-Light,Helvetica Neue" font-size="50.0" fill="#000000" transform="matrix(1.00, 0.00, -0.00, -1.00, 1094.4, 296.0)">k</text><text xml:space="preserve" font-family="HelveticaNeue-Light,Helvetica Neue" font-size="50.0" fill="#000000" transform="matrix(1.00, 0.00, -0.00, -1.00, 1119.4, 296.0)">i</text><text xml:space="preserve" font-family="HelveticaNeue-Light,Helvetica Neue" font-size="50.0" fill="#000000" transform="matrix(1.00, 0.00, -0.00, -1.00, 1128.6, 296.0)">n</text><text xml:space="preserve" font-family="HelveticaNeue-Light,Helvetica Neue" font-size="50.0" fill="#000000" transform="matrix(1.00, 0.00, -0.00, -1.00, 1155.5, 296.0)">g</text><text xml:space="preserve" font-family="HelveticaNeue-Light,Helvetica Neue" font-size="50.0" fill="#000000" transform="matrix(1.00, 0.00, -0.00, -1.00, 1183.3, 296.0)"> </text><text xml:space="preserve" font-family="HelveticaNeue-Light,Helvetica Neue" font-size="50.0" fill="#000000" transform="matrix(1.00, 0.00, -0.00, -1.00, 1011.0, 236.0)">L</text><text xml:space="preserve" font-family="HelveticaNeue-Light,Helvetica Neue" font-size="50.0" fill="#000000" transform="matrix(1.00, 0.00, -0.00, -1.00, 1037.8, 236.0)">o</text><text xml:space="preserve" font-family="HelveticaNeue-Light,Helvetica Neue" font-size="50.0" fill="#000000" transform="matrix(1.00, 0.00, -0.00, -1.00, 1065.6, 236.0)">c</text><text xml:space="preserve" font-family="HelveticaNeue-Light,Helvetica Neue" font-size="50.0" fill="#000000" transform="matrix(1.00, 0.00, -0.00, -1.00, 1091.6, 236.0)">a</text><text xml:space="preserve" font-family="HelveticaNeue-Light,Helvetica Neue" font-size="50.0" fill="#000000" transform="matrix(1.00, 0.00, -0.00, -1.00, 1117.5, 236.0)">t</text><text xml:space="preserve" font-family="HelveticaNeue-Light,Helvetica Neue" font-size="50.0" fill="#000000" transform="matrix(1.00, 0.00, -0.00, -1.00, 1132.3, 236.0)">i</text><text xml:space="preserve" font-family="HelveticaNeue-Light,Helvetica Neue" font-size="50.0" fill="#000000" transform="matrix(1.00, 0.00, -0.00, -1.00, 1141.6, 236.0)">o</text><text xml:space="preserve" font-family="HelveticaNeue-Light,Helvetica Neue" font-size="50.0" fill="#000000" transform="matrix(1.00, 0.00, -0.00, -1.00, 1169.4, 236.0)">n</text></g></g><g><clipPath id="clip0x600001cbd820"><path d="M 936.5 343.4 L 997.0 342.8 L 996.4 282.7 L 935.9 283.3 Z M 936.5 343.4 "></path></clipPath><g clip-path="url(#clip0x600001cbd820)"><g><clipPath id="clip0x600001cbd6a0"><path d="M 936.5 343.4 L 997.0 342.8 L 996.4 282.7 L 935.9 283.3 Z M 936.5 343.4 "></path></clipPath><g clip-path="url(#clip0x600001cbd6a0)"><g><clipPath id="clip0x600001cbd520"><path d="M 927.1 354.1 L 927.0 349.6 L 927.0 345.1 L 928.0 347.2 C 929.2 349.5 932.0 352.2 934.3 353.2 L 936.0 354.0 L 931.5 354.0 L 927.1 354.1 Z M 997.8 353.3 L 999.9 352.3 C 1002.2 351.1 1005.2 347.9 1005.9 345.9 C 1006.2 345.1 1006.5 344.5 1006.5 344.5 C 1006.6 344.5 1006.7 346.5 1006.7 348.9 L 1006.7 353.3 L 997.8 353.3 Z M 967.0 338.9 C 965.9 338.9 963.9 337.7 963.5 336.9 C 962.6 335.1 962.3 334.2 962.2 332.6 C 962.1 331.1 961.9 330.8 961.3 330.8 C 960.6 330.8 960.4 331.2 960.2 333.1 C 959.9 336.0 959.1 337.6 957.5 338.4 C 955.9 339.2 955.2 339.2 953.6 338.4 C 952.1 337.7 950.8 335.2 950.8 333.1 C 950.7 331.2 950.1 330.7 948.0 330.7 C 944.6 330.8 942.3 329.1 942.3 326.5 C 942.3 323.4 943.9 322.0 947.8 321.6 L 950.4 321.3 L 950.4 319.9 L 950.4 318.5 L 948.2 318.5 C 944.2 318.3 942.2 316.8 942.2 313.9 C 942.2 311.0 943.8 309.6 947.7 309.2 L 950.3 309.0 L 950.3 307.6 L 950.3 306.2 L 947.9 306.0 C 944.1 305.7 942.1 304.1 942.1 301.2 C 942.0 299.9 942.3 299.3 943.4 298.2 C 944.7 297.0 945.1 296.9 947.5 296.8 L 950.2 296.6 L 950.4 294.5 C 950.7 291.6 951.4 290.2 952.8 289.2 C 954.6 288.1 956.0 288.2 957.6 289.6 C 959.2 290.9 959.5 291.6 959.9 294.5 C 960.1 296.2 960.3 296.5 960.9 296.5 C 961.6 296.5 961.7 296.2 961.8 294.7 C 962.0 292.0 963.2 289.8 964.8 289.0 C 966.5 288.1 966.8 288.1 968.4 288.9 C 970.2 289.7 970.8 290.9 971.1 293.8 C 971.3 296.4 971.3 296.4 972.5 296.4 C 973.7 296.4 973.7 296.4 973.9 293.8 C 974.0 292.4 974.3 290.8 974.6 290.3 C 975.4 289.0 977.6 288.0 978.9 288.3 C 980.4 288.7 982.2 290.1 982.2 290.9 C 982.2 291.2 982.4 291.7 982.6 291.9 C 982.8 292.1 983.0 293.2 983.1 294.3 L 983.2 296.3 L 985.9 296.4 C 988.4 296.5 988.7 296.6 990.0 297.8 C 991.7 299.5 991.9 301.4 990.6 303.2 C 989.6 304.7 988.4 305.3 985.5 305.6 L 983.3 305.9 L 983.4 307.2 L 983.4 308.6 L 986.0 308.8 C 988.8 309.0 990.4 309.8 991.1 311.4 C 992.7 314.8 990.3 317.8 985.8 318.1 L 983.5 318.2 L 983.5 319.6 L 983.5 321.0 L 985.9 321.2 C 988.6 321.4 989.7 321.9 990.9 323.4 C 992.4 325.3 991.7 328.6 989.4 329.6 C 988.8 329.9 987.3 330.2 986.0 330.3 L 983.6 330.6 L 983.4 332.8 C 983.1 335.6 982.4 337.1 980.9 338.0 C 979.0 339.2 977.7 339.0 975.9 337.3 C 974.4 335.9 974.3 335.6 974.3 333.5 C 974.2 331.7 974.1 331.2 973.4 330.9 C 971.9 330.1 971.4 330.7 971.5 333.1 C 971.5 334.4 971.2 335.8 970.9 336.4 C 970.1 337.7 968.2 338.9 967.0 338.9 Z M 1006.0 282.5 L 1005.2 280.8 C 1004.1 278.5 1001.4 275.8 999.0 274.6 L 997.0 273.6 L 1005.9 273.5 L 1006.0 278.0 L 1006.0 282.5 Z M 926.3 283.3 L 926.3 278.8 L 926.2 274.3 L 930.7 274.3 L 935.2 274.3 L 933.5 275.0 C 931.2 276.1 928.5 278.8 927.3 281.2 L 926.3 283.3 Z M 926.3 283.3 "></path></clipPath><g clip-path="url(#clip0x600001cbd520)"><image xlink:href="../../DA755EE7-A420-4647-A48D-3DFDC0A96C8C/assets/027A9C5E7855DC42DB9038D6E7728F7B.png" width="200.00" height="200.00" transform="matrix(0.40, -0.00, -0.00, -0.40, 927.1, 354.1)"></image></g></g></g></g></g></g><g><clipPath id="clip0x608000ab4280"><path d="M 942.1 347.8 L 996.4 347.8 L 996.4 402.1 L 942.1 402.1 Z M 942.1 347.8 "></path></clipPath><g clip-path="url(#clip0x608000ab4280)"><image xlink:href="../../DA755EE7-A420-4647-A48D-3DFDC0A96C8C/assets/D3706507F5E74B988FF66E2827FA6CF2.png" width="148.00" height="148.00" transform="matrix(0.36, 0.00, -0.00, -0.36, 942.0, 402.0)"></image></g></g><g><clipPath id="clip0x6080008b1640"><path d="M 940.0 280.0 L 994.0 280.0 L 994.0 227.0 L 940.0 227.0 Z M 940.3 279.6 "></path></clipPath><g clip-path="url(#clip0x6080008b1640)"><g><clipPath id="clip0x608000aa3480"><path d="M 992.1 277.4 C 991.8 277.7 943.3 255.9 942.1 255.0 L 952.6 255.0 C 953.6 255.0 954.3 255.0 955.4 255.0 L 969.0 255.0 L 969.0 254.3 L 969.0 252.0 L 969.0 240.2 C 969.1 234.4 969.6 231.0 969.8 229.1 C 969.9 228.0 969.9 227.5 970.1 227.3 C 970.3 227.7 971.4 229.9 972.6 232.8 C 973.9 235.8 978.9 247.1 983.6 257.8 C 988.4 268.5 992.2 277.3 992.1 277.4 Z M 992.1 277.4 "></path></clipPath><g clip-path="url(#clip0x608000aa3480)"><g><clipPath id="clip0x608000cb8180"><path d="M 940.3 227.2 L 994.0 227.2 L 994.0 279.6 L 940.3 279.6 Z M 940.3 227.2 "></path></clipPath><g clip-path="url(#clip0x608000cb8180)"><image xlink:href="../../DA755EE7-A420-4647-A48D-3DFDC0A96C8C/assets/EA64C8920FDF870765F27B100FB342A5.png" width="281.00" height="179.00" transform="matrix(0.48, 0.00, -0.00, -0.47, 929.0, 296.0)"></image></g></g></g></g></g></g><g><clipPath id="clip0x6180006bf860"><path d="M 213.0 802.4 L 273.5 801.8 L 272.9 741.7 L 212.4 742.4 Z M 213.0 802.4 "></path></clipPath><g clip-path="url(#clip0x6180006bf860)"><g><clipPath id="clip0x6180006bc740"><path d="M 203.5 813.1 L 203.5 808.6 L 203.5 804.2 L 204.5 806.2 C 205.7 808.6 208.5 811.2 210.8 812.2 L 212.5 813.0 L 208.0 813.0 L 203.5 813.1 Z M 274.3 812.4 L 276.4 811.3 C 278.7 810.1 281.7 806.9 282.4 804.9 C 282.7 804.1 282.9 803.5 283.0 803.5 C 283.1 803.5 283.2 805.5 283.2 807.9 L 283.2 812.3 L 274.3 812.4 Z M 243.5 797.9 C 242.4 797.9 240.4 796.7 240.0 796.0 C 239.1 794.1 238.8 793.2 238.7 791.6 C 238.6 790.1 238.4 789.8 237.8 789.8 C 237.1 789.8 236.9 790.2 236.7 792.1 C 236.4 795.0 235.6 796.6 234.0 797.4 C 232.4 798.2 231.7 798.2 230.1 797.4 C 228.6 796.7 227.3 794.2 227.3 792.1 C 227.2 790.2 226.6 789.7 224.5 789.8 C 221.1 789.8 218.8 788.1 218.8 785.6 C 218.8 782.4 220.4 781.0 224.3 780.6 L 226.9 780.4 L 226.9 779.0 L 226.9 777.6 L 224.7 777.5 C 220.7 777.3 218.7 775.8 218.7 773.0 C 218.6 770.0 220.3 768.6 224.2 768.2 L 226.8 768.0 L 226.8 766.6 L 226.8 765.2 L 224.4 765.0 C 220.5 764.7 218.6 763.1 218.5 760.2 C 218.5 758.9 218.8 758.4 219.9 757.3 C 221.2 756.1 221.6 755.9 224.0 755.8 L 226.7 755.6 L 226.9 753.5 C 227.2 750.6 227.9 749.2 229.3 748.3 C 231.1 747.1 232.5 747.2 234.1 748.6 C 235.7 749.9 236.0 750.6 236.4 753.5 C 236.6 755.2 236.8 755.5 237.4 755.5 C 238.1 755.5 238.2 755.2 238.3 753.7 C 238.5 751.1 239.6 748.8 241.3 748.0 C 243.0 747.2 243.3 747.1 244.9 747.9 C 246.6 748.7 247.3 749.9 247.5 752.8 C 247.8 755.4 247.8 755.4 249.0 755.4 C 250.2 755.4 250.2 755.4 250.4 752.8 C 250.5 751.4 250.8 749.8 251.1 749.3 C 251.9 748.1 254.1 747.1 255.4 747.4 C 256.9 747.7 258.7 749.1 258.7 749.9 C 258.7 750.3 258.9 750.7 259.1 751.0 C 259.3 751.2 259.5 752.2 259.6 753.3 L 259.7 755.3 L 262.4 755.4 C 264.9 755.5 265.2 755.6 266.5 756.9 C 268.2 758.5 268.4 760.4 267.1 762.3 C 266.1 763.7 264.9 764.3 262.0 764.6 L 259.8 764.9 L 259.8 766.3 L 259.9 767.7 L 262.5 767.8 C 265.3 768.0 266.9 768.8 267.6 770.4 C 269.2 773.8 266.8 776.8 262.3 777.1 L 260.0 777.2 L 260.0 778.6 L 260.0 780.0 L 262.4 780.2 C 265.1 780.4 266.1 780.9 267.4 782.4 C 268.9 784.4 268.2 787.7 265.9 788.6 C 265.3 788.9 263.8 789.2 262.5 789.3 L 260.1 789.6 L 259.9 791.8 C 259.6 794.6 258.9 796.1 257.4 797.0 C 255.4 798.2 254.2 798.0 252.4 796.3 C 250.9 794.9 250.8 794.6 250.8 792.5 C 250.7 790.7 250.6 790.2 249.9 789.9 C 248.4 789.1 247.9 789.7 248.0 792.1 C 248.0 793.5 247.7 794.8 247.4 795.4 C 246.6 796.7 244.7 797.9 243.5 797.9 Z M 282.5 741.5 L 281.7 739.9 C 280.6 737.5 277.9 734.8 275.5 733.6 L 273.5 732.6 L 282.4 732.6 L 282.4 737.0 L 282.5 741.5 Z M 202.8 742.3 L 202.8 737.8 L 202.7 733.4 L 207.2 733.3 L 211.7 733.3 L 210.0 734.1 C 207.7 735.2 205.0 737.8 203.8 740.2 L 202.8 742.3 Z M 202.8 742.3 "></path></clipPath><g clip-path="url(#clip0x6180006bc740)"><image xlink:href="../../DA755EE7-A420-4647-A48D-3DFDC0A96C8C/assets/027A9C5E7855DC42DB9038D6E7728F7B.png" width="200.00" height="200.00" transform="matrix(0.40, -0.00, -0.00, -0.40, 203.5, 813.1)"></image></g></g></g></g><path d="M 0.2 0.2 L 129.0 0.2 L 131.2 0.2 " fill="none" stroke="#ABABAB" stroke-width="5.00" transform="matrix(1.00, 0.00, 0.00, -1.00, 518.8, 604.7)"></path><path d="M 647.5 594.3 L 667.9 604.5 L 647.5 614.7 Z M 647.5 594.3 " fill="#ABABAB"></path><image xlink:href="97D8C14BBC9130564504998460FEA936.png" width="240.00" height="240.00" transform="matrix(1.00, 0.00, -0.00, -1.00, 1160.0, 849.0)"></image></g></svg>